<svg xmlns="http://www.w3.org/2000/svg" xmlns:xlink="http://www.w3.org/1999/xlink" width="65.659" height="129.639" viewBox="0 0 65.659 129.639"><defs><filter id="a" x="0" y="0" width="65.659" height="129.639" filterUnits="userSpaceOnUse"><feOffset dx="2" dy="2" input="SourceAlpha"/><feGaussianBlur stdDeviation="1" result="b"/><feFlood flood-opacity="0.502"/><feComposite operator="in" in2="b"/><feComposite in="SourceGraphic"/></filter><filter id="c" x="0" y="0" width="65.659" height="129.639" filterUnits="userSpaceOnUse"><feOffset dx="1" dy="1" input="SourceAlpha"/><feGaussianBlur stdDeviation="1" result="d"/><feFlood flood-color="#fff" flood-opacity="0.2" result="e"/><feComposite operator="out" in="SourceGraphic" in2="d"/><feComposite operator="in" in="e"/><feComposite operator="in" in2="SourceGraphic"/></filter></defs><g data-type="innerShadowGroup"><g transform="matrix(1, 0, 0, 1, 0, 0)" filter="url(#a)"><path d="M20.951,27.262a2.469,2.469,0,0,1-1.9-4.037,13.91,13.91,0,0,1,21.477-.015,2.469,2.469,0,0,1-3.808,3.143,8.973,8.973,0,0,0-13.857.01,2.463,2.463,0,0,1-1.908.9m25.42-6.338a2.465,2.465,0,0,1-1.909-.9,18.978,18.978,0,0,0-29.3-.046,2.469,2.469,0,1,1-3.8-3.146,23.916,23.916,0,0,1,36.925.058,2.469,2.469,0,0,1-1.907,4.036m6.294-5.17a2.463,2.463,0,0,1-1.909-.9,27.123,27.123,0,0,0-41.861-.083,2.469,2.469,0,0,1-3.8-3.15,32.061,32.061,0,0,1,49.478.1,2.469,2.469,0,0,1-1.906,4.036m5.261,16.481H1.732A1.738,1.738,0,0,0,0,33.967v87.939a1.738,1.738,0,0,0,1.733,1.733H57.926a1.738,1.738,0,0,0,1.733-1.733V33.967a1.738,1.738,0,0,0-1.733-1.733M24.147,107.669a1.87,1.87,0,0,1-1.864,1.864H14.244a1.87,1.87,0,0,1-1.865-1.864V101a1.87,1.87,0,0,1,1.865-1.864h8.039A1.87,1.87,0,0,1,24.147,101Zm0-21.2a1.87,1.87,0,0,1-1.864,1.864H14.244a1.87,1.87,0,0,1-1.865-1.864V79.8a1.87,1.87,0,0,1,1.865-1.864h8.039A1.87,1.87,0,0,1,24.147,79.8Zm23.131,21.2a1.87,1.87,0,0,1-1.864,1.864H37.375a1.87,1.87,0,0,1-1.864-1.864V101a1.87,1.87,0,0,1,1.864-1.864h8.039A1.87,1.87,0,0,1,47.278,101Zm0-21.2a1.87,1.87,0,0,1-1.864,1.864H37.375a1.87,1.87,0,0,1-1.864-1.864V79.8a1.87,1.87,0,0,1,1.864-1.864h8.039A1.87,1.87,0,0,1,47.278,79.8Zm.749-20.566a3.009,3.009,0,0,1-3,3H31.719l4.083-6.24L39.976,51.91l-8.217,8.11-5.813,8.886H14.63a3.009,3.009,0,0,1-3-3V46.728a3.009,3.009,0,0,1,3-3h30.4a3.009,3.009,0,0,1,3,3Z" transform="translate(1 1)" fill="#1e2326"/></g><g transform="matrix(1, 0, 0, 1, 0, 0)" filter="url(#c)"><path d="M20.951,27.262a2.469,2.469,0,0,1-1.9-4.037,13.91,13.91,0,0,1,21.477-.015,2.469,2.469,0,0,1-3.808,3.143,8.973,8.973,0,0,0-13.857.01,2.463,2.463,0,0,1-1.908.9m25.42-6.338a2.465,2.465,0,0,1-1.909-.9,18.978,18.978,0,0,0-29.3-.046,2.469,2.469,0,1,1-3.8-3.146,23.916,23.916,0,0,1,36.925.058,2.469,2.469,0,0,1-1.907,4.036m6.294-5.17a2.463,2.463,0,0,1-1.909-.9,27.123,27.123,0,0,0-41.861-.083,2.469,2.469,0,0,1-3.8-3.15,32.061,32.061,0,0,1,49.478.1,2.469,2.469,0,0,1-1.906,4.036m5.261,16.481H1.732A1.738,1.738,0,0,0,0,33.967v87.939a1.738,1.738,0,0,0,1.733,1.733H57.926a1.738,1.738,0,0,0,1.733-1.733V33.967a1.738,1.738,0,0,0-1.733-1.733M24.147,107.669a1.87,1.87,0,0,1-1.864,1.864H14.244a1.87,1.87,0,0,1-1.865-1.864V101a1.87,1.87,0,0,1,1.865-1.864h8.039A1.87,1.87,0,0,1,24.147,101Zm0-21.2a1.87,1.87,0,0,1-1.864,1.864H14.244a1.87,1.87,0,0,1-1.865-1.864V79.8a1.87,1.87,0,0,1,1.865-1.864h8.039A1.87,1.87,0,0,1,24.147,79.8Zm23.131,21.2a1.87,1.87,0,0,1-1.864,1.864H37.375a1.87,1.87,0,0,1-1.864-1.864V101a1.87,1.87,0,0,1,1.864-1.864h8.039A1.87,1.87,0,0,1,47.278,101Zm0-21.2a1.87,1.87,0,0,1-1.864,1.864H37.375a1.87,1.87,0,0,1-1.864-1.864V79.8a1.87,1.87,0,0,1,1.864-1.864h8.039A1.87,1.87,0,0,1,47.278,79.8Zm.749-20.566a3.009,3.009,0,0,1-3,3H31.719l4.083-6.24L39.976,51.91l-8.217,8.11-5.813,8.886H14.63a3.009,3.009,0,0,1-3-3V46.728a3.009,3.009,0,0,1,3-3h30.4a3.009,3.009,0,0,1,3,3Z" transform="translate(1 1)" fill="#fff"/></g></g></svg>