<svg xmlns="http://www.w3.org/2000/svg" xmlns:xlink="http://www.w3.org/1999/xlink" width="131.197" height="131.197" viewBox="0 0 131.197 131.197"><defs><filter id="a" x="0" y="0" width="131.197" height="131.197" filterUnits="userSpaceOnUse"><feOffset dx="1" dy="1" input="SourceAlpha"/><feGaussianBlur stdDeviation="1" result="b"/><feFlood flood-color="#fff" flood-opacity="0.161"/><feComposite operator="in" in2="b"/><feComposite in="SourceGraphic"/></filter><filter id="c" x="0" y="0" width="131.197" height="131.197" filterUnits="userSpaceOnUse"><feOffset dx="2" dy="2" input="SourceAlpha"/><feGaussianBlur stdDeviation="1" result="d"/><feFlood flood-opacity="0.4" result="e"/><feComposite operator="out" in="SourceGraphic" in2="d"/><feComposite operator="in" in="e"/><feComposite operator="in" in2="SourceGraphic"/></filter></defs><g data-type="innerShadowGroup"><g transform="matrix(1, 0, 0, 1, 0, 0)" filter="url(#a)"><path d="M101.338,77.48a23.711,23.711,0,0,0-11.383,2.9l-5.1-7.135V51.957l5.1-7.135a23.915,23.915,0,1,0-9.33-9.144L73.944,40.69H51.253l-6.682-5.012a23.846,23.846,0,1,0-9.33,9.144l5.1,7.135V73.24l-5.1,7.135a23.914,23.914,0,1,0,9.33,9.144l6.682-5.012h22.69l6.682,5.012A23.85,23.85,0,1,0,101.338,77.48m-77.48,43.487a19.628,19.628,0,1,1,8.9-37.114L24.378,95.583a5.948,5.948,0,0,0-3.519.65c-4.442-4.067-7.943-6.614-8.5-6.055s1.988,4.059,6.055,8.5a5.943,5.943,0,0,0,8.041,8.041c4.442,4.067,7.943,6.614,8.5,6.055s-1.988-4.059-6.055-8.5a5.945,5.945,0,0,0,.654-3.493l11.6-8.7a19.62,19.62,0,0,1-17.3,28.889m17.3-87.847-11.6-8.7a5.947,5.947,0,0,0-.654-3.494c4.067-4.442,6.614-7.943,6.055-8.5s-4.059,1.988-8.5,6.055a5.943,5.943,0,0,0-8.041,8.041c-4.067,4.442-6.614,7.943-6.055,8.5s4.059-1.988,8.5-6.055a5.945,5.945,0,0,0,3.519.65l8.379,11.731a19.631,19.631,0,1,1,8.4-8.225M101.338,4.231a19.628,19.628,0,1,1-8.9,37.114l8.379-11.731a5.946,5.946,0,0,0,3.519-.65c4.442,4.067,7.943,6.614,8.5,6.055s-1.988-4.059-6.055-8.5a5.943,5.943,0,0,0-8.041-8.041c-4.443-4.067-7.943-6.614-8.5-6.055s1.988,4.059,6.055,8.5a5.946,5.946,0,0,0-.654,3.494l-11.6,8.7a19.619,19.619,0,0,1,17.3-28.889m0,116.736a19.619,19.619,0,0,1-17.3-28.889l11.6,8.7a5.945,5.945,0,0,0,.654,3.493c-4.067,4.443-6.614,7.943-6.055,8.5s4.059-1.988,8.5-6.055a5.943,5.943,0,0,0,8.041-8.041c4.067-4.442,6.614-7.943,6.055-8.5s-4.059,1.988-8.5,6.055a5.949,5.949,0,0,0-3.519-.65L92.439,83.852a19.625,19.625,0,1,1,8.9,37.114" transform="translate(2 2)" fill="#1e2326"/></g><g transform="matrix(1, 0, 0, 1, 0, 0)" filter="url(#c)"><path d="M101.338,77.48a23.711,23.711,0,0,0-11.383,2.9l-5.1-7.135V51.957l5.1-7.135a23.915,23.915,0,1,0-9.33-9.144L73.944,40.69H51.253l-6.682-5.012a23.846,23.846,0,1,0-9.33,9.144l5.1,7.135V73.24l-5.1,7.135a23.914,23.914,0,1,0,9.33,9.144l6.682-5.012h22.69l6.682,5.012A23.85,23.85,0,1,0,101.338,77.48m-77.48,43.487a19.628,19.628,0,1,1,8.9-37.114L24.378,95.583a5.948,5.948,0,0,0-3.519.65c-4.442-4.067-7.943-6.614-8.5-6.055s1.988,4.059,6.055,8.5a5.943,5.943,0,0,0,8.041,8.041c4.442,4.067,7.943,6.614,8.5,6.055s-1.988-4.059-6.055-8.5a5.945,5.945,0,0,0,.654-3.493l11.6-8.7a19.62,19.62,0,0,1-17.3,28.889m17.3-87.847-11.6-8.7a5.947,5.947,0,0,0-.654-3.494c4.067-4.442,6.614-7.943,6.055-8.5s-4.059,1.988-8.5,6.055a5.943,5.943,0,0,0-8.041,8.041c-4.067,4.442-6.614,7.943-6.055,8.5s4.059-1.988,8.5-6.055a5.945,5.945,0,0,0,3.519.65l8.379,11.731a19.631,19.631,0,1,1,8.4-8.225M101.338,4.231a19.628,19.628,0,1,1-8.9,37.114l8.379-11.731a5.946,5.946,0,0,0,3.519-.65c4.442,4.067,7.943,6.614,8.5,6.055s-1.988-4.059-6.055-8.5a5.943,5.943,0,0,0-8.041-8.041c-4.443-4.067-7.943-6.614-8.5-6.055s1.988,4.059,6.055,8.5a5.946,5.946,0,0,0-.654,3.494l-11.6,8.7a19.619,19.619,0,0,1,17.3-28.889m0,116.736a19.619,19.619,0,0,1-17.3-28.889l11.6,8.7a5.945,5.945,0,0,0,.654,3.493c-4.067,4.443-6.614,7.943-6.055,8.5s4.059-1.988,8.5-6.055a5.943,5.943,0,0,0,8.041-8.041c4.067-4.442,6.614-7.943,6.055-8.5s-4.059,1.988-8.5,6.055a5.949,5.949,0,0,0-3.519-.65L92.439,83.852a19.625,19.625,0,1,1,8.9,37.114" transform="translate(2 2)" fill="#fff"/></g></g></svg>