<svg xmlns="http://www.w3.org/2000/svg" xmlns:xlink="http://www.w3.org/1999/xlink" width="100.505" height="125.402" viewBox="0 0 100.505 125.402"><defs><filter id="a" x="0" y="0" width="100.505" height="125.402" filterUnits="userSpaceOnUse"><feOffset dx="1" dy="1" input="SourceAlpha"/><feGaussianBlur stdDeviation="1" result="b"/><feFlood flood-opacity="0.502"/><feComposite operator="in" in2="b"/><feComposite in="SourceGraphic"/></filter><filter id="c" x="0" y="0" width="100.505" height="125.402" filterUnits="userSpaceOnUse"><feOffset dx="1" dy="1" input="SourceAlpha"/><feGaussianBlur stdDeviation="1" result="d"/><feFlood flood-color="#fff" flood-opacity="0.2" result="e"/><feComposite operator="out" in="SourceGraphic" in2="d"/><feComposite operator="in" in="e"/><feComposite operator="in" in2="SourceGraphic"/></filter></defs><g data-type="innerShadowGroup"><g transform="matrix(1, 0, 0, 1, 0, 0)" filter="url(#a)"><path d="M47.338,66.3A19.833,19.833,0,1,0,67.171,86.134,19.833,19.833,0,0,0,47.338,66.3m6.473,4.971a4.151,4.151,0,1,1-4.151,4.151,4.151,4.151,0,0,1,4.151-4.151m-12.945,0a4.151,4.151,0,1,1-4.151,4.151,4.151,4.151,0,0,1,4.151-4.151M30.274,86.462a4.151,4.151,0,1,1,4.151,4.151,4.151,4.151,0,0,1-4.151-4.151M40.865,101a4.151,4.151,0,1,1,4.151-4.151A4.151,4.151,0,0,1,40.865,101m2.321-14.534a4.151,4.151,0,1,1,4.151,4.151,4.151,4.151,0,0,1-4.151-4.151M53.81,101a4.151,4.151,0,1,1,4.151-4.151A4.151,4.151,0,0,1,53.81,101m6.44-10.383A4.151,4.151,0,1,1,64.4,86.462a4.151,4.151,0,0,1-4.151,4.151m22.788-1.337-2.653-2.025c5.217-7.91,4.207-18.512,4.207-18.512,12.958-3.366,10.266-21.878,8.078-32.985a15.81,15.81,0,0,0-12.117-12.79C73.99-.934,47.218.005,47.218.005l.041.007S20.514-.927,13.951,22.971A15.811,15.811,0,0,0,1.834,35.761C-.354,46.868-3.047,65.38,9.912,68.746c0,0-1.01,10.6,4.207,18.512l-2.653,2.025s-1.386-2.025-2.733-1.015-5.049,3.871-5.049,3.871.318,7.589,6.9,16.493c6.986,9.45,11.949,10.771,11.949,10.771l5.722-4.039s.463-.467-.337-2.356l3.029-2.019s9.3,5.426,15.819,5.426c6.563.168,16.789-5.433,16.789-5.433L66.586,113c-.8,1.89-.337,2.356-.337,2.356l5.722,4.039s4.963-1.32,11.949-10.771c6.582-8.9,6.9-16.493,6.9-16.493s-3.7-2.861-5.049-3.871-2.732,1.015-2.732,1.015m-70.7-28.24C5.845,59.112,7.42,45.029,9.065,38.451s6.249-7.565,10.361-8.552,14.966-1.316,14.966-1.316c8.552,0,6.241,8.689,3.74,13.223C36.2,45.313,29.064,54.861,23.123,59.629c-1,.8-4.046,3.406-10.788,1.407m34.882,48.642A23.545,23.545,0,1,1,70.762,86.134a23.545,23.545,0,0,1-23.545,23.545M71.382,59.629c-5.941-4.768-13.074-14.316-15.009-17.823-2.5-4.534-4.812-13.223,3.74-13.223,0,0,10.854.329,14.966,1.316S83.8,31.873,85.44,38.451s3.22,20.661-3.271,22.585c-6.741,2-9.786-.6-10.788-1.407" transform="translate(2 2)" fill="#1e2326"/></g><g transform="matrix(1, 0, 0, 1, 0, 0)" filter="url(#c)"><path d="M47.338,66.3A19.833,19.833,0,1,0,67.171,86.134,19.833,19.833,0,0,0,47.338,66.3m6.473,4.971a4.151,4.151,0,1,1-4.151,4.151,4.151,4.151,0,0,1,4.151-4.151m-12.945,0a4.151,4.151,0,1,1-4.151,4.151,4.151,4.151,0,0,1,4.151-4.151M30.274,86.462a4.151,4.151,0,1,1,4.151,4.151,4.151,4.151,0,0,1-4.151-4.151M40.865,101a4.151,4.151,0,1,1,4.151-4.151A4.151,4.151,0,0,1,40.865,101m2.321-14.534a4.151,4.151,0,1,1,4.151,4.151,4.151,4.151,0,0,1-4.151-4.151M53.81,101a4.151,4.151,0,1,1,4.151-4.151A4.151,4.151,0,0,1,53.81,101m6.44-10.383A4.151,4.151,0,1,1,64.4,86.462a4.151,4.151,0,0,1-4.151,4.151m22.788-1.337-2.653-2.025c5.217-7.91,4.207-18.512,4.207-18.512,12.958-3.366,10.266-21.878,8.078-32.985a15.81,15.81,0,0,0-12.117-12.79C73.99-.934,47.218.005,47.218.005l.041.007S20.514-.927,13.951,22.971A15.811,15.811,0,0,0,1.834,35.761C-.354,46.868-3.047,65.38,9.912,68.746c0,0-1.01,10.6,4.207,18.512l-2.653,2.025s-1.386-2.025-2.733-1.015-5.049,3.871-5.049,3.871.318,7.589,6.9,16.493c6.986,9.45,11.949,10.771,11.949,10.771l5.722-4.039s.463-.467-.337-2.356l3.029-2.019s9.3,5.426,15.819,5.426c6.563.168,16.789-5.433,16.789-5.433L66.586,113c-.8,1.89-.337,2.356-.337,2.356l5.722,4.039s4.963-1.32,11.949-10.771c6.582-8.9,6.9-16.493,6.9-16.493s-3.7-2.861-5.049-3.871-2.732,1.015-2.732,1.015m-70.7-28.24C5.845,59.112,7.42,45.029,9.065,38.451s6.249-7.565,10.361-8.552,14.966-1.316,14.966-1.316c8.552,0,6.241,8.689,3.74,13.223C36.2,45.313,29.064,54.861,23.123,59.629c-1,.8-4.046,3.406-10.788,1.407m34.882,48.642A23.545,23.545,0,1,1,70.762,86.134a23.545,23.545,0,0,1-23.545,23.545M71.382,59.629c-5.941-4.768-13.074-14.316-15.009-17.823-2.5-4.534-4.812-13.223,3.74-13.223,0,0,10.854.329,14.966,1.316S83.8,31.873,85.44,38.451s3.22,20.661-3.271,22.585c-6.741,2-9.786-.6-10.788-1.407" transform="translate(2 2)" fill="#fff"/></g></g></svg>