<svg xmlns="http://www.w3.org/2000/svg" xmlns:xlink="http://www.w3.org/1999/xlink" width="154.893" height="132.025" viewBox="0 0 154.893 132.025"><defs><filter id="a" x="0" y="0" width="154.893" height="132.025" filterUnits="userSpaceOnUse"><feOffset dx="2" dy="2" input="SourceAlpha"/><feGaussianBlur stdDeviation="1" result="b"/><feFlood flood-opacity="0.502"/><feComposite operator="in" in2="b"/><feComposite in="SourceGraphic"/></filter><filter id="c" x="0" y="0" width="154.893" height="132.025" filterUnits="userSpaceOnUse"><feOffset dx="1" dy="1" input="SourceAlpha"/><feGaussianBlur stdDeviation="1" result="d"/><feFlood flood-color="#fff" flood-opacity="0.2" result="e"/><feComposite operator="out" in="SourceGraphic" in2="d"/><feComposite operator="in" in="e"/><feComposite operator="in" in2="SourceGraphic"/></filter></defs><g data-type="innerShadowGroup"><g transform="matrix(1, 0, 0, 1, 0, 0)" filter="url(#a)"><path d="M98.134,88.257v-6.4h4.593V66.023H98.134v-6.4h4.593V50.478a6.706,6.706,0,0,0-5.6-6.59V20.9A20.9,20.9,0,0,0,76.221,0H58.735a20.9,20.9,0,0,0-20.9,20.9V43.887a6.706,6.706,0,0,0-5.6,6.59v9.145h4.593v6.4H32.228V81.857h4.593v6.4H32.228v8.9a4.442,4.442,0,0,0,4.429,4.429H98.3a4.442,4.442,0,0,0,4.429-4.429v-8.9ZM81.815,43.791H53.141V20.9a5.594,5.594,0,0,1,5.594-5.594H76.221A5.594,5.594,0,0,1,81.815,20.9Zm10.432,0H86.693V20.9A10.473,10.473,0,0,0,76.22,10.431H58.735A10.472,10.472,0,0,0,48.262,20.9V43.791H42.709V20.9A16.026,16.026,0,0,1,58.735,4.878H76.221A16.025,16.025,0,0,1,92.246,20.9Zm56.327,73.483a2.265,2.265,0,0,0-3.106-.784l-6.785,4.051a2.093,2.093,0,0,1-2.7-.47l-4.775-5.8a6.594,6.594,0,0,0-8.89-1.246l-4.243,2.926a2.1,2.1,0,0,1-1.194.372H84.068c-7.186-2.721-24.09-4.688-33.69-4.688H7.2a7.2,7.2,0,1,0,0,14.393H50.378c9.909,0,28.81-2.18,35.034-5.175h31.466a6.6,6.6,0,0,0,3.766-1.173l4.243-2.926a2.091,2.091,0,0,1,2.819.4l4.775,5.8A6.6,6.6,0,0,0,141,124.43l6.785-4.051a2.265,2.265,0,0,0,.784-3.106m-130.95,3.449H9.741a2.228,2.228,0,1,1,0-4.455h7.882a2.228,2.228,0,1,1,0,4.455" transform="translate(1 1)" fill="#1e2326"/></g><g transform="matrix(1, 0, 0, 1, 0, 0)" filter="url(#c)"><path d="M98.134,88.257v-6.4h4.593V66.023H98.134v-6.4h4.593V50.478a6.706,6.706,0,0,0-5.6-6.59V20.9A20.9,20.9,0,0,0,76.221,0H58.735a20.9,20.9,0,0,0-20.9,20.9V43.887a6.706,6.706,0,0,0-5.6,6.59v9.145h4.593v6.4H32.228V81.857h4.593v6.4H32.228v8.9a4.442,4.442,0,0,0,4.429,4.429H98.3a4.442,4.442,0,0,0,4.429-4.429v-8.9ZM81.815,43.791H53.141V20.9a5.594,5.594,0,0,1,5.594-5.594H76.221A5.594,5.594,0,0,1,81.815,20.9Zm10.432,0H86.693V20.9A10.473,10.473,0,0,0,76.22,10.431H58.735A10.472,10.472,0,0,0,48.262,20.9V43.791H42.709V20.9A16.026,16.026,0,0,1,58.735,4.878H76.221A16.025,16.025,0,0,1,92.246,20.9Zm56.327,73.483a2.265,2.265,0,0,0-3.106-.784l-6.785,4.051a2.093,2.093,0,0,1-2.7-.47l-4.775-5.8a6.594,6.594,0,0,0-8.89-1.246l-4.243,2.926a2.1,2.1,0,0,1-1.194.372H84.068c-7.186-2.721-24.09-4.688-33.69-4.688H7.2a7.2,7.2,0,1,0,0,14.393H50.378c9.909,0,28.81-2.18,35.034-5.175h31.466a6.6,6.6,0,0,0,3.766-1.173l4.243-2.926a2.091,2.091,0,0,1,2.819.4l4.775,5.8A6.6,6.6,0,0,0,141,124.43l6.785-4.051a2.265,2.265,0,0,0,.784-3.106m-130.95,3.449H9.741a2.228,2.228,0,1,1,0-4.455h7.882a2.228,2.228,0,1,1,0,4.455" transform="translate(1 1)" fill="#fff"/></g></g></svg>