<svg xmlns="http://www.w3.org/2000/svg" xmlns:xlink="http://www.w3.org/1999/xlink" width="123.435" height="114.769" viewBox="0 0 123.435 114.769"><defs><filter id="a" x="0" y="0" width="123.435" height="114.769" filterUnits="userSpaceOnUse"><feOffset dx="1" dy="1" input="SourceAlpha"/><feGaussianBlur stdDeviation="1" result="b"/><feFlood flood-color="#fff" flood-opacity="0.161"/><feComposite operator="in" in2="b"/><feComposite in="SourceGraphic"/></filter><filter id="c" x="0" y="0" width="123.435" height="114.769" filterUnits="userSpaceOnUse"><feOffset dx="2" dy="2" input="SourceAlpha"/><feGaussianBlur stdDeviation="1" result="d"/><feFlood flood-opacity="0.502" result="e"/><feComposite operator="out" in="SourceGraphic" in2="d"/><feComposite operator="in" in="e"/><feComposite operator="in" in2="SourceGraphic"/></filter></defs><g data-type="innerShadowGroup"><g transform="matrix(1, 0, 0, 1, 0, 0)" filter="url(#a)"><path d="M83.039,42.757H78.3A19.664,19.664,0,0,0,60.134,24.588V19.852a1.416,1.416,0,0,0-2.832,0v4.737A19.664,19.664,0,0,0,39.133,42.757H34.4a1.416,1.416,0,0,0,0,2.832h4.737A19.664,19.664,0,0,0,57.3,63.758v4.737a1.416,1.416,0,0,0,2.832,0V63.758A19.664,19.664,0,0,0,78.3,45.589h4.737a1.416,1.416,0,1,0,0-2.832m-7.576,0H71.81A13.192,13.192,0,0,0,60.134,31.081V27.428A16.831,16.831,0,0,1,75.463,42.757M58.717,47.943a3.769,3.769,0,1,1,3.77-3.769,3.774,3.774,0,0,1-3.77,3.769M57.3,37.729a6.617,6.617,0,0,0-5.028,5.029H48.479A10.356,10.356,0,0,1,57.3,33.935Zm-5.028,7.86A6.618,6.618,0,0,0,57.3,50.618v3.794a10.357,10.357,0,0,1-8.822-8.822Zm7.86,5.029a6.618,6.618,0,0,0,5.029-5.029h3.794a10.358,10.358,0,0,1-8.822,8.822Zm5.029-7.86a6.617,6.617,0,0,0-5.029-5.029V33.935a10.357,10.357,0,0,1,8.822,8.822ZM57.3,27.428v3.653A13.192,13.192,0,0,0,45.625,42.757H41.973A16.831,16.831,0,0,1,57.3,27.428M41.973,45.589h3.653A13.192,13.192,0,0,0,57.3,57.266v3.653A16.831,16.831,0,0,1,41.973,45.589M60.134,60.918V57.266A13.193,13.193,0,0,0,71.81,45.589h3.653A16.831,16.831,0,0,1,60.134,60.918m53.828,34.425h-.1v-.007A14.04,14.04,0,0,1,99.878,81.321l0-67.321a14.04,14.04,0,0,0-14-14H32.321a14.04,14.04,0,0,0-14,14l-.007,67.661A13.77,13.77,0,0,1,4.383,95.343H3.789A3.8,3.8,0,0,0,0,99.131v5.851a3.8,3.8,0,0,0,3.789,3.788H16.632v-3.1H33.621v3.1H83.815v-3.1H100.8v3.1h13.158a3.542,3.542,0,0,0,3.474-3.788V99.131a3.542,3.542,0,0,0-3.474-3.788M89.737,75.673a3.787,3.787,0,0,1-3.776,3.776H31.475A3.787,3.787,0,0,1,27.7,75.673V14.137a3.787,3.787,0,0,1,3.776-3.776H85.961a3.787,3.787,0,0,1,3.776,3.776Z" transform="translate(2 2)" fill="#1e2326"/></g><g transform="matrix(1, 0, 0, 1, 0, 0)" filter="url(#c)"><path d="M83.039,42.757H78.3A19.664,19.664,0,0,0,60.134,24.588V19.852a1.416,1.416,0,0,0-2.832,0v4.737A19.664,19.664,0,0,0,39.133,42.757H34.4a1.416,1.416,0,0,0,0,2.832h4.737A19.664,19.664,0,0,0,57.3,63.758v4.737a1.416,1.416,0,0,0,2.832,0V63.758A19.664,19.664,0,0,0,78.3,45.589h4.737a1.416,1.416,0,1,0,0-2.832m-7.576,0H71.81A13.192,13.192,0,0,0,60.134,31.081V27.428A16.831,16.831,0,0,1,75.463,42.757M58.717,47.943a3.769,3.769,0,1,1,3.77-3.769,3.774,3.774,0,0,1-3.77,3.769M57.3,37.729a6.617,6.617,0,0,0-5.028,5.029H48.479A10.356,10.356,0,0,1,57.3,33.935Zm-5.028,7.86A6.618,6.618,0,0,0,57.3,50.618v3.794a10.357,10.357,0,0,1-8.822-8.822Zm7.86,5.029a6.618,6.618,0,0,0,5.029-5.029h3.794a10.358,10.358,0,0,1-8.822,8.822Zm5.029-7.86a6.617,6.617,0,0,0-5.029-5.029V33.935a10.357,10.357,0,0,1,8.822,8.822ZM57.3,27.428v3.653A13.192,13.192,0,0,0,45.625,42.757H41.973A16.831,16.831,0,0,1,57.3,27.428M41.973,45.589h3.653A13.192,13.192,0,0,0,57.3,57.266v3.653A16.831,16.831,0,0,1,41.973,45.589M60.134,60.918V57.266A13.193,13.193,0,0,0,71.81,45.589h3.653A16.831,16.831,0,0,1,60.134,60.918m53.828,34.425h-.1v-.007A14.04,14.04,0,0,1,99.878,81.321l0-67.321a14.04,14.04,0,0,0-14-14H32.321a14.04,14.04,0,0,0-14,14l-.007,67.661A13.77,13.77,0,0,1,4.383,95.343H3.789A3.8,3.8,0,0,0,0,99.131v5.851a3.8,3.8,0,0,0,3.789,3.788H16.632v-3.1H33.621v3.1H83.815v-3.1H100.8v3.1h13.158a3.542,3.542,0,0,0,3.474-3.788V99.131a3.542,3.542,0,0,0-3.474-3.788M89.737,75.673a3.787,3.787,0,0,1-3.776,3.776H31.475A3.787,3.787,0,0,1,27.7,75.673V14.137a3.787,3.787,0,0,1,3.776-3.776H85.961a3.787,3.787,0,0,1,3.776,3.776Z" transform="translate(2 2)" fill="#fff"/></g></g></svg>