<svg xmlns="http://www.w3.org/2000/svg" xmlns:xlink="http://www.w3.org/1999/xlink" width="1806.569" height="1808.57" viewBox="0 0 1806.569 1808.57"><defs><clipPath id="a"><rect width="1806.569" height="1808.57" fill="none"/></clipPath></defs><g opacity="0.05" style="mix-blend-mode:screen;isolation:isolate"><g clip-path="url(#a)"><path d="M1374.748,569.673c-.518-2.319-1.1-4.618-1.72-6.909a676.94,676.94,0,0,0-64.622-156.8c-28.555-50.391-63.3-96.1-103.37-137.748a645.265,645.265,0,0,0-84.468-73.58c-5.321-3.886-10.289-7.889-13.187-14.087a14.034,14.034,0,0,0-10.807-8.416,38.15,38.15,0,0,1-6.961-1.282c-7.616-2.765-16.225-4.353-17.2-14.987-.313-3.4-3.05-5.6-5.848-7.5a73.85,73.85,0,0,0-31.4-11.812c-5.233-.76-10.51-.965-15.461-3.565a536.439,536.439,0,0,0-54.438-24.3A662.443,662.443,0,0,0,781.411,65.365c-6.141-.543-12.427-.394-18.463-2.291-17.929-5.651-36.42-8.231-55.109-8.995a300.133,300.133,0,0,0-87.257,9.147c-26.14,6.7-51.664,15.461-77.861,22.085-62.58,15.835-121.3,41.215-176.431,74.73-69.167,42.039-128.83,94.925-179.417,158.064a670.581,670.581,0,0,0-107.6,191.748c-6.688,18.419-12.419,37.132-17.467,56.061-1.487,5.546-1,6.2,4.742,6.27,10.992.125,22,.072,32.988.028,7.568-.028,7.648-.044,9.654-7.158a614.814,614.814,0,0,1,53.26-128.939c5.378-9.8,10.771-19.633,17.378-28.9.731.856,1.33,1.23,1.383,1.676a47.325,47.325,0,0,0,15.441,30.187,16.764,16.764,0,0,1,5.751,10.771c.462,4.718-.506,8.766-4.59,11.732-3.754,2.737-7.524,2.789-11.76,1.113-3.959-1.567-6.527-4.931-11.358-8.532,2.87,17.242,7.946,31.292,20.569,41.609,14.006,11.446,30.384,14.219,47.8,12.154,26.489-3.147,47.923-14.613,58.646-40.158,11.253-26.8,12.125-53.111-8.516-76.791a35.16,35.16,0,0,1-7.5-14.022c-3.585-13.311,3.987-26.2,17.278-29.25,21.389-4.9,39.507,1.4,54.164,16.976,24.456,26,32.426,57.818,27.747,92.233-5.751,42.252-29.066,73.85-64.6,96.718-6.981,4.493-14.2,8.621-21.317,12.909-1.989,1.186-3.951,2.371-4.859,5.663,18.7,0,36.734-.044,54.767.044,3.006.016,4.923-1.419,6.929-3.324a145.369,145.369,0,0,0,17.422-20.2c20.835-28.648,32.739-60.261,32.148-96.155-.125-7.757-1.2-15.353-1.881-23.013-2.9-32.952-15.184-61.571-40.291-83.684-15.907-14-34.648-20.051-56.045-16.876-9.031,1.338-17.869,3.826-27.309,2.548-14.943-2.026-29.528.5-43.775,5.3-2.034.687-3.939,2.452-7.061,1.383,64.63-77.354,142.249-136.607,233.867-177.271,2.13,2.576-1.23,4.521,1.141,6.7,4.148-1.354,5.928-6.061,9.959-7.865,4.779-2.13,9.71-1.945,12.367,1.1,2.548,2.914,2.174,8.239-1.33,12.214-3.336,3.782-7.15,7.134-10.59,10.831a172.979,172.979,0,0,0-33.816,53.011c-.908,2.231-2.283,4.509-1,7.632,1.728-1.266,2.914-2.086,4.047-2.978,1.391-1.113,2.641-2.436,4.12-3.4,4.136-2.677,7.648-.792,7.757,4.2.08,3.726-1.579,6.864-3.923,9.682-8.408,10.156-14.469,21.646-19.693,33.7A151.5,151.5,0,0,0,420.39,364.16c3.05,27.257,13.078,52.308,26.389,76.052,19.669,35.046,45.933,64.815,75.059,92.16,5.679,5.333,11.277,11,19.677,15.682-1.793-3.388-3.28-5.277-3.8-7.407-.82-3.4-1.756-7.23,1.346-10.019,3.038-2.737,6.724-3.746,10.727-1.977,2.986,1.318,6.036,2.516,8.87,4.1a72.312,72.312,0,0,1,29.556,31.268c3.4,6.748,7.455,9.228,14.416,8.219a14.641,14.641,0,0,1,1.784-.016c16.976-.438,17.688,3.5,10.466-16-7.158-19.348-18.427-36.545-29.572-53.734-26.043-40.146-39.853-83.978-39.575-131.933.109-18.266,5.518-35.066,16.852-49.679,14.183-18.286,33.961-26.16,55.953-29.725,3.292-.535,6.732-1.515,10.868.382-9.529,5.474-18.331,10.807-25.774,18.082-12.383,12.073-22.269,25.686-24.689,43.213a98.733,98.733,0,0,0,2.737,40.576c8.078,28.736,23.8,53.1,44.193,74.24,28.672,29.733,53.545,61.953,71.02,99.551,1.764,3.8,4.119,5.128,8.231,5.1,23.182-.161,46.359-.08,69.541-.088.884,0,1.785-.036,2.665-.125,4.787-.518,5.856-1.535,4.875-6.117a105.508,105.508,0,0,0-7.544-22.772c-9.557-20.409-24.7-36.1-42-49.945-10.2-8.159-20.774-15.843-30.822-24.17-16.816-13.926-31.642-29.636-41.288-49.555-4.9-10.1-7.331-20.666-5.377-31.943,1.808-10.413,6.688-17.33,15.236-21.132-9.059,17.3-4.192,32.345,6.394,46.568A96.989,96.989,0,0,0,692.663,429.8c22.137,18.375,46.906,32.265,73.411,43.18,18.7,7.712,36.955,16.349,53.939,27.382,26.445,17.181,51.219,35.93,59.948,68.641a3.767,3.767,0,0,0,3.8,3.131c13.9.028,27.8.008,41.629.008a25.183,25.183,0,0,0,.4-3.629,24.012,24.012,0,0,0-.643-3.476c-6.358-27.551-22.145-48.839-43.92-66.161-20.891-16.627-44.354-28.511-69.16-38.068-17.491-6.74-35.822-10.638-53.618-16.333-18.464-5.92-36.252-13.327-52.131-24.6-11.547-8.183-21.655-17.768-24.946-32.381-1.077-4.795-2.166-9.746,1.294-15.228,1.346,4.807,2.343,8.782,4.136,12.527,6.438,13.408,17.189,22.591,29.564,29.982,29.323,17.539,61.873,25.517,95.175,30.617,33.121,5.08,64.951,13.99,94.6,29.769,17.937,9.549,34.146,21.478,46.665,37.855a104.34,104.34,0,0,1,21.068,52.147c.82,6.981,1.069,6.953,8.151,7.061,1.785.028,3.565,0,5.349,0,40.122,0,80.248-.527,120.354.285,14.38.285,26.783-3.657,38.908-10.281a62.779,62.779,0,0,0,20.276-16.993c11.635-15.164,35.834-17.1,49.768-11.824,5.876,2.231,9.324,6.768,9.425,13.737.133,9.541-2.194,17.877-11,25.043,7.729,0,13.657.052,19.581-.028a12.156,12.156,0,0,0,9.513-4.083c13.464-15.61,11.036-42.5-2.48-51.247-3.139-2.034-3.243-3.931-2.4-7.339,2.773-11.241-.7-19.657-10.245-26.1a54.943,54.943,0,0,0-16.084-7.508c-14.629-4.075-29.636-5.779-44.732-6.6-12.178-.667-24.207,1.684-36.288,2.371-12.258.687-18.142,7.536-22.386,17.217-2.612,5.964-4.546,12.242-6.563,18.455-4.208,13.018-8.809,25.83-16.582,37.26-4.449,6.535-9.863,10.164-18.492,9.871-18.4-.623-36.846-.153-55.27-.249-2.174-.008-4.815,1.1-6.7-1.977a48.886,48.886,0,0,1,21.86-14.183c6.4-2.042,11.571-.072,16.317,4.1,1.5,1.31,1.8,3.915,4.638,4.047,5.152-12.857.679-22.9-10.2-31.57,7.375-3.05,13.882-5.8,19.577-9.987,11.663-8.585,14.818-20.043,8.882-33.836-1.853,3.087-1.909,6.6-4.156,8.934-1.9,1.989-3.806,3.79-6.937,2.845-3.211-.965-5.048-2.926-5.181-6.366a19.883,19.883,0,0,1,1.194-7.845c1.945-5.285,3.71-10.646,5.349-16.02,9.477-30.946,17.073-62.275,20.811-94.524,2.1-18.106,1.515-36.135,1.045-54.225-.133-5.333-.571-10.662.366-16,1.784-10.192,7.158-17.378,16.9-21.164,4.433-1.72,8.878-3.416,13.178-5.422,4.385-2.042,5.333-7.295,8.46-10.787a649.41,649.41,0,0,1,78.307,76,632.932,632.932,0,0,1,117.955,200.754c4.662,12.849,8.629,25.911,12.411,39.033.792,2.765,1.061,6.141,5.181,6.141,14.211.016,28.414.008,42.529.008a10.79,10.79,0,0,0,.273-2.5M269.672,381.353c.952,14.247,7.889,26.023,14.123,38.193,8.934,17.423,4.272,40.3-10.341,53.859-2.854-.313-1.64-2.628-1.829-4.075a120.043,120.043,0,0,0-7.72-28.262c-2.809-7.178-5.313-14.469-6.161-22.225-1.527-14.05,3.448-26.128,11.928-37.489m-21.49,42.911c.623,8.8,4.236,15.666,7.765,22.683,5.84,11.583,2.9,24.93-7.668,34.708-.643-12.588-6.792-23.021-8.343-34.68-1.017-7.688,1.435-14.071,8.247-22.712m897.4,71.06c6.989-2.958,14.372-3.28,21.345-3.5a187.324,187.324,0,0,1,30.267,4.172c4.545.973,8.319,3.131,10.076,7.809,2.158,5.787-1.568,11.539-7.64,10.735-13.444-1.784-25.738,1.535-37.8,6.893a33.015,33.015,0,0,1-9.36,2.657c-8.81,1.053-15.851-3.263-17.411-10.253-1.6-7.158,3.135-15.381,10.526-18.508M712.858,88.985c10.815-1.141,20.167.241,27.522,8.078,8.139,8.685,5.856,19.384-5.341,23.093-7.507,2.488-15.433,4.4-24.106.506,8.532-10.317,7.713-20.67,1.925-31.678m-27.1-2.693c6.885,2.576,11.526,7.214,12.133,14.907.659,8.416-3.308,14.328-10.691,17.8-10.9,5.128-22.422,6.836-36.047,5.538,10.646-12.793,8.46-24.235-.145-36.2,11.932-4.172,23.113-6.41,34.749-2.05M505.794,194.187c25.605-21.1,55.483-32.659,87.631-39.085,5.233-1.053,10.465-2.086,15.727-2.958,4.9-.812,6.044.177,5.2,5.08-2.8,16.253-11.715,27.611-27.47,33.121-7.041,2.468-14.525,2.677-21.815,3.878-18.178,3.006-36.083,6.981-53.288,13.793-9.754,3.862-18.528,9.264-27.068,15.345,3.907-12.178,11.591-21.353,21.088-29.174m92.55,81.892c-19.488,3.4-37.855,9.782-53.968,21.675-21.184,15.654-33.069,37.108-37.2,62.633-5.333,33.04-1.133,65.538,8.175,97.457,2.568,8.818,5.582,17.511,8.424,26.248.535,1.648,1.784,3.175.454,5.305-3.593-3.308-5.779-7.544-8.343-11.446-15.578-23.716-28.049-48.847-34.3-76.727-4.875-21.779-5.02-43.578.768-65.2,8.593-32.116,30.074-51.6,61.222-61.162,23.33-7.158,47.2-7.909,71.229-4.771,3.432.446,7.158,0,10.875,2.106-9.421,1.314-18.423,2.323-27.341,3.882M627,125.992c-5.269,2.914-11.056,3.886-17.013,4.59-29.351,3.5-57.38,12.045-84.805,22.772q-2.863,1.109-5.715,2.239c15.3-17.591,33.266-31.987,52.694-44.579a141.369,141.369,0,0,1,36.063-17.081c4.3-1.282,8.6-2.158,13.122-1.282,8.255,1.588,13.295,6.579,14.561,14.665,1.31,8.327-1.648,14.665-8.906,18.676m40.934,99.66c-6.937-3.38-13.9-6.748-20.549-10.638-3.878-2.263-4.8-6.631-4.911-10.92-.133-4.751-.028-9.505-.028-14.256h-.036c0-4.164-.072-8.319.008-12.471.221-10.405,3.609-14.846,13.355-18.6,7.8-3.006,14.971-3.05,21.47,2.942,2.058,1.909,3.842,3.665,2.239,6.828-1.66,3.243-3.681,2.665-6.587,1.64-6.535-2.319-7.455-1.4-9.131,4.984-2.962,11.261.651,22.406.2,33.611-.08,2.058,1.579,2.958,3.167,3.886a48.273,48.273,0,0,1,5.92,3.967c2.231,1.809,1.969,4.156.723,6.438-1.27,2.3-3.207,3.862-5.836,2.588M821.987,412.4c-6.491-.635-12.99,0-19.488.125-26.534.49-52.762-1.374-76.434-15.212a50.69,50.69,0,0,1-19.75-19.971c-.518-.973-1.479-1.953-.249-3.452,15.244,14.891,33.808,16.53,53.493,12.885,33.977-6.286,63.846,2.8,90.593,23.813,2.773,2.174,5.831,4.135,8.026,8.6-12.174-4.779-24.219-5.606-36.191-6.784m46.621-93.286c-3.38,5.241-6.76,10.494-10.421,15.542-6.286,8.621-10.084,9.915-19.633,5.422-3.842-1.809-5.217-.41-7.258,2.086-5.2,6.374-11.679,8.818-19.766,6.037-7.134-2.46-10.735-7.1-10.566-14.605.109-5.02.667-10.039,1.266-15.039,1.5-12.507-3.324-20.549-15.256-24.757-6.2-2.186-12.471-3.77-19.122-1.567a20.14,20.14,0,0,0-12.073,9.827c-1.817,3.344-3.038,6.426-.382,9.851,2.729,3.513,1.756,6.41-1.3,9.308-5.16,4.9-10.019,10.136-15.148,15.084-5.048,4.867-5.9,4.9-11.205.747-6.346-4.975-12.029-10.574-15.815-17.857-6.234-11.973-2.854-23.732,9.039-30.332a49.351,49.351,0,0,1,23.949-5.9,125.655,125.655,0,0,0,18.624-1.077c8.026-1.23,13.837-5.277,17.129-12.551,3.006-6.615,5.048-13.532,4.341-20.891-3.256-.426-3.842,1.648-4.763,2.978-7.612,11.012-18.162,15.851-31.372,14.9-10.349-.748-20.7-1.487-31-2.721-18.258-2.194-28.78,10.51-27.53,25.372a38.913,38.913,0,0,1-.474,12.4c-1.354,5.671-4.457,8.942-8.444,8.613-3.629-.293-6.125-3.541-6.659-9.131-1.238-12.74-.579-25.517-.482-38.273.028-3.557.438-7.106.506-10.662a28.507,28.507,0,0,1,3.834-13.568c5.241-9.228,13.054-11.563,22.466-6.929a27.1,27.1,0,0,0,3.951,2.014c6.873,2.034,11.511-.731,11.744-7.853.394-12.17.313-24.359-.028-36.529-.189-6.917-4.574-11.414-10.67-14.071a33.006,33.006,0,0,0-8.561-2.311c-2.942-.418-5.393-1.383-6.008-4.353-.607-2.89,1.157-5.136,3.4-6.792,5.643-4.18,12.234-6.029,19.01-7.114,14.32-2.3,28.386-1.917,41.557,5.16a30,30,0,0,1,13.926,14.987c-4.449-1.945-7.524-3.4-10.683-4.626a3.671,3.671,0,0,0-4.148.711c-1.374,1.411-.482,2.862.33,3.987,4.618,6.447,8.621,13.436,18.25,13.649,5.868.133,11.752,1.419,17.539,2.612,4.875,1.017,5.582,3.191,3.271,7.648a10.592,10.592,0,0,1-10.912,6.109,32.568,32.568,0,0,1-7.873-1.427c-9.1-3.058-15.28,1.053-20.9,7.837,4.019,3.014,8.621,2.994,12.776,4,10.646,2.584,10.968,2.677,12.5,13.882a11.035,11.035,0,0,0,.965,2.46c4.4-1.089,5.188-4.192,5.474-8.07.776-10.4,4.787-13.882,15.112-14.444,6.153-.33,11.776,1.258,17.262,3.585,17.776,7.568,32.638,19.223,45.781,33.193,3.424,3.637,3.111,5.136-1.346,7.25-6.008,2.862-12.608,2.978-19.086,3.4-3.255.221-6.543-.109-9.79.133-4.529.33-6.141,3.529-3.726,7.258a23.057,23.057,0,0,0,3.022,3.255Q850,284.187,866.783,301.395c6.969,7.182,7.218,9.356,1.824,17.72m1.274-59.522c.747,8.649.2,14.995-3.36,21.405a88.533,88.533,0,0,1-16.992-15.015c6.515-3.171,13.765-1.3,20.352-6.39M977.8,368.757a7.118,7.118,0,0,1-1.479.623c-13.6-16.53-29.455-28.583-53.135-20.123,4.9,2.472,10.136,3.923,14.2,8.042,4.734,4.795,6.2,10.011,4.545,16.2-4.557,17.145-19.48,31.561-40.737,26.2-11.217-2.833-20.389-7.516-25.364-18.725-3.665-8.247-2.781-16.144,0-24.243,3.6-10.486,9.352-19.89,15.469-28.977,3.951-5.876,4.638-11.02,1.25-17.286-2.371-4.385-3.71-9.344-5.438-14.079-4.031-11.036-2.576-21.486,3.022-31.7,4.6-8.388,3.842-12.234-3.38-18.616-16.985-15.023-35.351-28.085-56.544-36.42-6.748-2.657-9.975-6.688-10.984-13.4a57.755,57.755,0,0,0-1.945-7.765c-1.463-4.911-2.709-5.651-7.624-4.485-1.435.35-2.765,1.125-4.2,1.463-2.548.587-4.493.1-5.731-2.693-8.621-19.553-22.056-35.741-36.143-51.48-4-4.477-3.894-4.537.92-7.793,2.7-1.821,6.045-3.255,7.829-5.767,4.939-6.953,11.35-6.68,18.741-5.856,61.178,6.828,119.887,22.9,176.54,46.753,1.632.687,3.167,1.567,5.225,2.6-6.133,9.425-10.715,19.195-13.07,30.038a139.843,139.843,0,0,0-1.383,53.879c1.282,7.516,5.358,13.785,10.385,19.372a92.931,92.931,0,0,0,7.6,7.508c27.928,24.745,28.648,71.478,1.439,96.738M996.18,185.675c-4.815-10.831.7-20.835,13.737-25.553-7.15,18.383-1.274,35.456,1.354,52.726a151.9,151.9,0,0,1-15.091-27.173m87.55,39.684c-9.959,2.363-17.225,8.958-23.9,16.209-7,7.6-11.4,8.167-19.48,2.014-7.1-5.414-11.313-12.857-14.227-21.06-5.723-16.136-7.246-32.9-6.383-49.856.507-9.923,7.464-14.927,19.436-14.818,8.846.088,16.2,2.95,20.818,11.056,1.72,3.022,2.034,6.045-1.712,7.274-14.642,4.787-17.117,16.86-17.716,29.717-.169,3.7-3.469,9.5,1.479,11.028,3.44,1.069,5-4.9,6.989-8.006a45.615,45.615,0,0,1,13.427-13.99c10.691-7.009,23.616-2.926,28.282,8.95a52.249,52.249,0,0,1,2.2,6.74c2.673,11.085,1.885,12.109-9.216,14.742" transform="translate(184.426 162.482)" fill="#666563"/><path d="M1336.1,266.543c-5.028-.161-7.194.928-8.6,6.117-3.308,12.322-7.295,24.472-11.474,36.529a618.643,618.643,0,0,1-82.325,158.217,645.325,645.325,0,0,1-97.876,107.871,627.107,627.107,0,0,1-125.944,86.453,622.946,622.946,0,0,1-162.184,57.7,604.933,604.933,0,0,1-117.368,12.885c-15.718.132-31.421.177-47.163-.784a684.32,684.32,0,0,1-70.666-7.793c-1.889-.313-4.3.2-5.181-2.4.41-1.917,1.989-2.942,3.131-4.272,11.217-13.018,16.12-28.085,15.023-45.238-1.258-19.641-10.92-33.39-28.611-41.689-9.577-4.485-19.729-6.205-30.231-6.535-12.214-.382-24.206,1.9-36.3,2.942-12.837,1.113-21.389-2.753-27.113-13.99-4.039-7.933-8.452-15.8-11.378-24.154-6.893-19.641-4.529-38.016,10.02-53.815,9.469-10.289,21.426-16.671,34.379-21.542,18.062-6.784,35.974-13.962,54.028-20.746,7.612-2.862,11.973-7.648,13.612-15.923,2.343-11.8,7.194-22.635,16.763-30.677a124.942,124.942,0,0,1,22.7-15.6,164.948,164.948,0,0,1,33.925-13.239c6.856-1.809,12.66-5.189,14.292-13,4.843-23.109,20.364-36.187,41.6-43.409,14.131-4.815,28.752-5.357,43.739-5.1,14.115.249,26.277,3.324,36.8,12.652a14.94,14.94,0,0,0,1.463,1.025q20.178,13.841,40.379,27.675c4.923,3.36,8.693,7.419,8,13.837-2.319,21.478-3.4,43.052-5.964,64.514-2.15,18.009,4.6,30.472,18.8,36.641q84.1,36.563,168.236,73.046c8.211,3.577,15.9,3.243,23.877-.623,18.214-8.826,35.725-18.785,51.846-31.087,23.093-17.627,43.241-37.935,58.3-63.014a23.425,23.425,0,0,0,3.424-15.939c-2.2-17.021-9.646-31.73-19.5-45.3-19.5-26.843-45.114-40.11-79.038-35.4-27.542,3.826-46.352,18.2-56.238,44.149-1.684,4.441-3.244,8.9-5.321,13.194-2.026,4.208-4.831,4.718-8.7,2.87-21.273-10.208-35.5-25.453-36.77-50.354-.446-8.834.088-17.965-4.156-26.148-8.745-16.876-15.7-34.584-23.8-51.757-5.582-11.856-5.591-12.776,3.975-22.3,6.322-6.278,12.837-12.411,17.885-19.794,3.087-4.509,7.033-8.926,5.948-15.461-1.612-.161-3.059-.446-4.5-.446q-110.533-.024-221.082-.117c-4.53-.008-6.849,1.72-8.942,5.482a76.183,76.183,0,0,1-25.963,27.647c-8.086,5.128-15.923,10.056-19.311,20.879-10.164-14.416-2.942-25.935,3.782-38.229-13.09,2.809-22.129,9.441-29.367,18.954-9.959,13.07-14.862,28.254-18.608,43.956-2.9,12.162-3.4,24.617-4.984,36.947C646,393.7,641.869,396.6,631,394.525c-9.119-1.748-16.273,1.355-22.78,7.15-3.131,2.781-5.446,6.242-7.821,9.666-13.677,19.774-27.494,39.459-41.066,59.317a30.661,30.661,0,0,1-18.668,12.68c-11.768,2.934-21.888-.635-29.636-9.609-7.222-8.372-5.8-17.776-.555-26.526a57.525,57.525,0,0,0,8.05-34.966c-.35-4.734.249-9.529-.125-14.256-.679-8.613,1.821-15.63,8.524-21.353,3.577-3.059,6.161-7.295,9.762-10.325,5.723-4.823,6.4-10.815,3.826-16.86-3.372-7.9-4.039-15.968-4.164-24.311-.293-19.135-.2-38.293-1.977-57.81-32.329,0-64.4.052-96.469-.072-3.5-.008-5.152,1.8-7.178,4.164-8.034,9.36-17.35,17.065-29.343,20.915-25.553,8.195-48.554,3.147-69.328-13.407-8.1-12.037-20.147-12.837-32.936-11.627-1.764.161-3.565.016-5.349.016h-26.8a3.558,3.558,0,0,0-.1,4.208c15.059,27.595,35.777,49.41,64.7,62.661,14.46,6.615,29.789,9.417,45.64,10.638,18.624,1.427,36.706.394,54.217-6.555,13.685-5.438,25.657-13.532,36.794-23.057,4.984-4.26,6.221-4.019,9.344,1.772a94.911,94.911,0,0,1,11.02,38.185c.366,4.718-.679,6.133-5.43,6.579-10.8,1.017-20.863,4.477-29.411,11.446-6.117,4.992-10.5,11.065-11.539,19.267,8.709.052,10.019,1.391,9.8,9.477-.269,9.851-4.111,18.536-9.308,26.55-6.242,9.629-14.416,17.459-25.32,21.61-9.067,3.46-14.89-.08-16.422-9.264-12.9,2.709-23.511,14.915-22.04,29.094.555,5.386,1.214,10.743,3.5,15.514,2.379,4.976,1.222,8.5-2.5,11.8-8.424,7.435-9.959,16.852-8.673,27.486,1.274,10.582,1.772,21.265,2.62,31.9,1.6,20.079,2.532,40.211,4.867,60.233.615,5.358.088,10.843.088,16.888-1.616-.828-2.673-1.266-3.621-1.881a636.359,636.359,0,0,1-104.358-84.351,649.314,649.314,0,0,1-71.494-85.063,624.406,624.406,0,0,1-84.878-170.76c-2.166-6.768-4.244-13.58-6.053-20.461-.812-3.066-2.21-4.558-5.458-4.546-13.926.072-27.852.036-41.565.036-.981,2.548-.1,4.216.33,5.856A660.121,660.121,0,0,0,123.238,426.81C163,498.67,214.366,561.258,276.6,614.86A675.479,675.479,0,0,0,400.6,699.569c9.666,5.144,20.22,8.765,28.9,15.61a104.48,104.48,0,0,0,50.845,21.86,81.464,81.464,0,0,1,15.441,3.834c16.546,5.751,33.326,10.751,50.294,15.164a653.323,653.323,0,0,0,138.648,20.891c32.944,1.33,65.9,1.318,98.724-1.933a689.735,689.735,0,0,0,127.323-24.528,669.062,669.062,0,0,0,168.988-76.442A679.561,679.561,0,0,0,1207,570.128a685.357,685.357,0,0,0,77.559-96.163,664.253,664.253,0,0,0,81.357-170.62c3.674-11.788,7.568-23.527,10.02-36.653-13.793,0-26.819.285-39.829-.149m-260.328,163.92a23.821,23.821,0,0,1,12.945-8.97,59.125,59.125,0,0,1,14.372-2.62c30.492.679,48.064,21.024,53.244,42.188,1.077,4.385,1.186,8.834-1.105,13-3.557,6.447-10.317,7.427-15.477,2.255a10.556,10.556,0,0,1-1.764-2c-8.3-14.38-21.988-17.893-37.124-18.4-4.449-.141-8.914.153-13.363-.08-6.3-.338-11.466-2.882-14.424-8.79-3.1-6.145-.88-11.494,2.7-16.579m-12.812,46.79a19.66,19.66,0,0,1,12.382-6.555c17.1-1.515,32.337,3.095,44.8,15.272a19.759,19.759,0,0,1,6.286,14.175c.338,2.371-.944,5.036-2.649,7.524a40.257,40.257,0,0,1-14.649,12.712c-5.241,2.809-8.6,1.917-12.294-2.942q-4.292-5.673-8.211-11.635c-3.967-6.017-9.3-9.8-16.5-10.94a23.536,23.536,0,0,1-5.964-1.684c-7-3.167-8.468-10.293-3.2-15.928m-150.532-67a29.907,29.907,0,0,1,3.352-11.9c5.546-10.2,17.519-12.382,26.373-4.867,5.848,4.967,9.38,11.269,11.724,18.508a131.432,131.432,0,0,0,20.605,40.13c11.012,14.344,24.6,24.814,42.562,28.592,7.053,1.487,11.233,5.413,11.981,12.366.928,8.6,6.125,12,13.918,13.436,7.282,1.346,14.468,3.3,21,7.009,13.178,7.488,14.834,20.453,3.629,30.689-4.751,4.34-9.666,9.015-18.793,8.058-2.014-.571-5.751-1.479-9.4-2.693-33.487-11.145-66.672-23.045-98.02-39.507a32.206,32.206,0,0,1-7.391-4.851c-4-3.754-4.457-8.195-2.926-13.026,1.507-4.742,5.538-4.574,9.5-4.654,2.8-.052,6.346.9,7.407-3.066.916-3.448-.2-6.338-3.247-8.516-7.8-5.583-13.926-12.793-19.488-20.513-9.746-13.516-14.179-28.539-12.788-45.194M469.787,492.473c3.4-8.283,9.593-14.834,14.5-22.193,1.25-1.865,3.372-1.764,4.361.1A118.039,118.039,0,0,1,498.9,496.214c-.044,9.031-2.809,14.175-9.163,17.073-5.5,2.5-11.048,1.66-15.361-3.022-4.6-4.98-7.435-10.892-4.594-17.792M571.319,706.852c-2.817,2.182-5.583,4.421-8.914,5.832-8.283,3.484-14.489,1.543-18.7-6.366-4.465-8.38-8.532-16.985-12.865-25.437-2.034-3.959-4.3-7.793-6.462-11.679-1.543-2.765-3.85-3.79-6.712-2.379-3.316,1.64-3.665,4.325-1.969,7.463,1.559,2.87,3.111,5.751,4.537,8.673,4.859,9.959,2.07,15.674-8.81,18.142-12.17,2.765-28.451-4.626-33.836-16.048a91.281,91.281,0,0,1-7.1-20.087c-2.005-9.682-7.684-14.2-16.968-15.292-1.471-.169-2.926-.462-4.369-.776-13.853-3.05-22.888-12.6-24.938-26.755-4.316-29.753-10.976-58.915-22.245-86.855-5.056-12.519-4.208-23.411,5.731-33.471,7.294-7.383,13.89-15.485,22.076-21.916,8.006-6.286,12.7-4.7,15.485,4.984,4.911,17.125,8.468,34.5,9.051,52.4.169,5.321,1.945,10.53,1.178,15.939a206.039,206.039,0,0,0-1.133,33.728c.446,12.154,1.624,24.267,5.482,35.9,2.158,6.507,4.887,12.793,9.666,17.885,4.947,5.285,6.6,5.679,13.026,2.576a31.123,31.123,0,0,1,25.063-1.471c18.142,6.607,36.091,13.669,52.513,24.018a68.3,68.3,0,0,1,13.283,10.413c9.694,10.18,8.934,22.056-2.066,30.581M601.374,671.3c-1.829,2.926-3.657,3.485-6.346.981-11.724-10.932-26.276-17.057-40.532-23.652a34.523,34.523,0,0,1-9.228-5.357c15.674,3.111,29.592,5.9,43.526,8.641a18.968,18.968,0,0,1,12.419,7.829c2.781,3.891,2.62,7.608.161,11.559" transform="translate(183.992 804.656)" fill="#666563"/><path d="M4.353,266.75c13.219,0,26.514.133,39.8-.08,3.971-.064,4.843,1.913,5.518,5.176q5.046,24.422,11.458,48.526A851.662,851.662,0,0,0,237.159,655.635,869.677,869.677,0,0,0,408.032,809.342a843.536,843.536,0,0,0,216.63,106.48,814.936,814.936,0,0,0,141.1,32.727c24.066,3.3,48.184,5.655,72.427,7.387a775.29,775.29,0,0,0,97.871.723c61.085-3.352,121.354-12.592,180.494-28.768a857.486,857.486,0,0,0,161.758-62.171,853.381,853.381,0,0,0,185.237-126.993,864.3,864.3,0,0,0,176.2-218.824c38.225-67.572,66.289-139.255,85.022-214.58q4.19-16.838,7.351-33.924c.784-4.224,2.335-5.036,6.447-4.859,10.381.442,20.794.161,31.2.193,9.1.028,9.115.044,7.327,9.332a873.108,873.108,0,0,1-23.825,93.985,873.2,873.2,0,0,1-56.729,139.163,894.109,894.109,0,0,1-131.712,191.676c-17.487,19.424-35.508,38.3-54.554,56.174A910.013,910.013,0,0,1,1325.93,891.528a894.418,894.418,0,0,1-220.017,85.6A877.534,877.534,0,0,1,994.79,996.7c-25.617,2.862-51.307,4.417-77.053,5.711-11.474.575-23.029,2.122-34.451,1.29-25.043-1.821-50.137-2.556-75.164-4.875-28.073-2.6-55.965-6.21-83.64-11.342a894.8,894.8,0,0,1-206.747-64.879,892.4,892.4,0,0,1-137.821-77.9,899.046,899.046,0,0,1-103.936-83.6A912.986,912.986,0,0,1,157.687,627.341,907.564,907.564,0,0,1,91.831,521.592,892.484,892.484,0,0,1,27,364.681,836.964,836.964,0,0,1,4.623,274.9c-.494-2.528-1.531-5.124-.269-8.147" transform="translate(11.325 804.627)" fill="#666563"/><path d="M1777.549,734.693c-13.709,0-26.763-.173-39.8.1-4.377.088-5.454-1.965-6.181-5.659-4.666-23.584-10.659-46.858-17.511-69.887A850.533,850.533,0,0,0,1555.216,360a869.862,869.862,0,0,0-188.485-170.969A845.69,845.69,0,0,0,1126.981,77.916a809.532,809.532,0,0,0-103.362-22.474,882.419,882.419,0,0,0-97.188-9.425c-17.218-.635-34.423-1.037-51.608-.731a876.959,876.959,0,0,0-100.03,7.664A847.011,847.011,0,0,0,450.956,165.969a868.9,868.9,0,0,0-257.21,236.154,852.826,852.826,0,0,0-80.493,136.345A833.3,833.3,0,0,0,61.822,678.74c-4.32,16.04-8.384,32.148-11.442,48.494-1.383,7.4-1.531,7.415-9.2,7.451q-14.71.066-29.419,0c-8.492-.044-8.8-.322-7.142-8.436,4.505-22.1,9.417-44.117,15.55-65.832A921.68,921.68,0,0,1,57.606,552.828a902.984,902.984,0,0,1,155.428-246.8,915.686,915.686,0,0,1,169.707-149.91A890.811,890.811,0,0,1,608.828,44.695,881.115,881.115,0,0,1,762.921,9.014C788.74,5.449,814.666,3.178,840.694,1.5,870.981-.451,901.3-.3,931.487.819A843.451,843.451,0,0,1,1036.508,11.8,911.8,911.8,0,0,1,1187.346,49.73a907.4,907.4,0,0,1,348.7,221.356,928.019,928.019,0,0,1,95.946,115.619,887.875,887.875,0,0,1,139.448,314.666c2.2,9.847,4.1,19.761,6.1,29.656a26.65,26.65,0,0,1,.012,3.665" transform="translate(11.549 0.001)" fill="#666563"/><path d="M487.682,404.224c-12.768-24.777-25.5-49.591-38.41-74.3-2.058-3.931-1.764-5.856,2.3-8.424q30.209-19.02,29.885-55.008c-.293-37.863-28.824-67.162-66.732-68.348-28.772-.908-57.6-.221-86.4-.169-6.929.016-6.937.161-7.114,6.776-.044,1.479-.008,2.97-.008,4.449V403.4c0,2.086.169,4.172-.016,6.233-.382,4.2,1.33,5.876,5.59,5.832,14.255-.141,28.511-.169,42.758.016,4.4.064,5.832-1.793,5.458-5.848-.161-1.764-.028-3.565-.028-5.341,0-21.084-.028-42.172.052-63.256.008-2.23-1.149-5.526,1.471-6.426,4.208-1.455,8.818-.679,13.247-.438,3.806.2,4.34,3.71,5.546,6.234,11.012,23.013,22.057,46,32.695,69.175,2.122,4.6,4.787,5.984,9.529,5.92,16.619-.2,33.258-.072,49.884-.088,1.427-.008,2.962.314,5.092-1.579-1.632-3.267-3.175-6.459-4.8-9.613M426.521,275.053c-3.557,9.352-10.948,13.649-20.577,14.308-4.421.314-8.89.052-13.327.052s-8.89-.044-13.339.028c-2.906.044-4.324-1.113-4.3-4.172q.109-17.772.016-35.556c-.016-3.139,1.712-4.128,4.477-4.111,9.183.064,18.439-.607,27.522.358,15.815,1.68,24.741,15.409,19.532,29.094" transform="translate(969.513 596.807)" fill="#666563"/><path d="M570.349,265.151c-4.887-37.6-31.392-64.923-69.2-66.76-29.038-1.407-58.191-.338-87.293-.366-.294,0-.6.016-.892.016-2.926-.044-4.353,1.354-4.288,4.316.044,2.078-.008,4.164-.008,6.242q-.012,49-.008,97.992,0,49.9.008,99.784c.008,9.059.044,9.083,9.388,9.095,16.333.028,32.667.109,49-.028,12.447-.1,24.91.687,37.329-.973,21.932-2.914,39.764-12.491,52.995-30.713,11.4-15.7,13.882-34.049,14.782-52.175,1.1-22.064,1.081-44.245-1.809-66.43M516.687,337.3a36.378,36.378,0,0,1-5.172,17.768c-5.856,9.292-14.915,12.125-25.151,12.455-5.643.177-11.3.125-16.94.016-6.25-.124-6.4-.2-6.438-6.607-.08-18.134-.028-36.26-.036-54.386s-.052-36.26.028-54.385c.028-6.294.189-6.366,6.555-6.5,5.048-.117,10.112.153,15.156-.064,17.431-.74,30.814,8.5,31.988,30.287a559.036,559.036,0,0,1,.012,61.415" transform="translate(1233.736 596.749)" fill="#666563"/><path d="M258.617,397.241c-11.715-22.671-23.351-45.391-35.3-67.938-2.05-3.862-1.5-5.422,2.138-7.552A61.153,61.153,0,0,0,240.6,309.51c14.846-16.788,17.913-36.641,13.641-57.585-6.491-31.891-33.691-53.662-66.27-54.084-18.419-.241-36.838-.052-55.258-.052h-36.1c-1.6,3.336-.9,6.652-.9,9.863q-.078,83.785-.036,167.561c0,11.3.189,22.583-.088,33.872-.117,4.763,1.72,6.125,6.205,6.053,12.777-.2,25.553-.1,38.329-.044,10.779.036,9.4-.161,9.425-9.887.036-20.79,0-41.593.036-62.391.016-9.915-.579-8.834,9.336-8.914a22,22,0,0,0,2.677-.008c3.878-.506,5.84,1.435,7.427,4.831,10.92,23.395,22.145,46.645,32.944,70.1,2.2,4.795,5.02,6.426,10.18,6.338,16.04-.285,32.08-.072,48.128-.108,2.006-.008,4.164.506,6.623-1.487-2.7-5.329-5.45-10.847-8.287-16.329M188.4,287.445c-11.856,3.7-24.134,1.463-36.224,1.7-2.4.044-2.56-2.058-2.568-3.87-.028-6.221-.008-12.447-.008-18.676h-.016c0-5.333.153-10.67-.044-16-.153-3.886,1.487-5.2,5.241-5.116,8.3.177,16.627-.35,24.894.189,14.481.945,22.45,9.814,22,23.644-.281,8.187-5.357,15.658-13.271,18.13" transform="translate(288.521 596.917)" fill="#fa2321"/><path d="M303.59,262.813a64.73,64.73,0,0,0-8.906-27.747c-14.621-24.564-36.633-36.581-64.851-37.035-27.032-.446-54.084.044-81.116-.358-4.939-.072-6.382,1.222-6,5.715.153,1.772.028,3.565.028,5.349V305.9q0,50.362.008,100.721c.008,8.532.064,8.569,8.818,8.585,15.449.036,30.9.109,46.351-.016,13.355-.1,26.719.563,40.066-.723,29.608-2.862,53.574-22.261,62.6-50.676,2.914-9.175,3.308-18.588,3.906-28.1a486.319,486.319,0,0,0-.908-72.877M249.812,340.28c-1.7,17.093-11.334,26.276-28.318,27.12-6.507.321-13.062-.141-19.569.153-4.566.2-5.43-1.969-5.4-5.92.125-18.391.052-36.778.052-55.169,0-18.09-.044-36.187.028-54.277.028-6.3.161-6.394,6.418-6.491,6.527-.109,13.054-.2,19.569.036,14.979.543,25.73,10.421,27.112,25.408a361.917,361.917,0,0,1,.109,69.139" transform="translate(430.69 596.772)" fill="#fa2321"/><path d="M124.153,291.681c12.479,0,24.958.056,37.437-.036,3.312-.024,5.956.233,5.852,4.541-.494,20.433.92,40.869-2.858,61.246-6.041,32.578-35.6,59.586-72.664,60.981-11.828.446-23.748.8-35.3-2.89-31.139-9.955-49.924-30.6-55.37-63.175a101.772,101.772,0,0,1-1.161-16.8c-.02-19.906-.2-39.817.032-59.723.51-43.293,29.6-70.518,61.017-76.3,28.21-5.192,55.877-2.914,79,17.109,14.714,12.74,22.6,29.447,26.389,48.293.715,3.565-.655,4.787-4.164,4.762-14.854-.092-29.717-.2-44.567.06-4.349.076-5.486-2.227-6.6-5.582-2.789-8.392-8.215-14.525-16.824-17.065-16.876-4.976-35.251-.269-38.852,21.884-1.093,6.72-2.263,13.436-2.042,20.316.559,17.487-1.174,35.026,1.246,52.468.165,1.178.374,2.347.518,3.525,1.471,11.86,6.571,21.124,18.914,24.243s23.584.856,32.6-8.77c5.635-6.016,6.788-13.637,7.122-21.458.133-3.071-2.166-3.038-4.276-3.051-7.427-.032-14.862-.217-22.281.028-4.369.145-5.619-1.636-5.542-5.775.2-11.285.149-22.583.016-33.868-.048-4.232,1.479-5.534,5.84-5.41,12.166.346,24.343.121,36.517.121.008.1.008.209.008.318" transform="translate(-0.001 595.202)" fill="#fa2321"/><path d="M439.473,264.042c-3.541-28.475-19.356-47.7-44.479-60.064-13.5-6.643-28.013-6.864-42.642-6.615-25.9.454-46.138,11.752-61.572,32.008-12.314,16.156-14.649,35.4-14.951,54.767-.314,20.425-.936,40.886.964,61.322,2.6,28,15.2,49.35,40.05,63.247,15.988,8.942,33.274,10.019,50.917,9.212,33.611-1.543,65-27.735,70.61-59.968,2.914-16.743,3.131-33.587,3.38-50.463a339.813,339.813,0,0,0-2.279-43.446m-53.754,81.932c-2.194,12.366-8.657,20.533-21.068,23.592a26.424,26.424,0,0,1-31.473-16.751c-2.516-6.792-2.906-13.97-3.448-21.024a315.2,315.2,0,0,1,1.025-58.638c1.077-9.754,3.8-18.7,12.873-24.187,17.519-10.582,38.535-.6,42.027,19.758,2.231,12.981,1.455,26.035,1.684,39.069-.289,12.736.635,25.5-1.62,38.181" transform="translate(831.673 595.66)" fill="#666563"/><path d="M334.29,308.443c2.841-1.792,2.608-4.083,3.095-6.033q12.328-49.169,24.552-98.362c.832-3.368,1.306-6.318,5.819-6.29,16.876.1,33.752.04,50.985.04.33,6.189-2.082,11.048-3.436,16.024Q389,310.413,362.382,406.91c-2.673,9.706-1.981,8.2-10.57,8.307-9.2.117-18.415.06-27.619.016-8.167-.04-8.074-.109-10.494-7.516q-14.927-45.69-29.962-91.345c-.547-1.66-1.314-3.247-2.753-6.764-8.725,26.393-16.892,51.106-25.2,76.225-2.894-1.338-3.215-3.509-3.858-5.265-7.664-20.875-15.168-41.81-22.929-62.649a17.78,17.78,0,0,1-.229-12.045q12.618-40.789,25.111-81.618c2.174-7.09,4.441-14.159,6.354-21.321,1.021-3.818,3.063-5.273,6.969-5.193,8.609.181,17.226,0,25.838.044,7.367.04,7.451.06,9.694,7.387q11.448,37.431,22.8,74.895c2.845,9.352,5.759,18.688,8.753,28.374" transform="translate(687.841 596.983)" fill="#666563"/><path d="M379.665,408.89q-9.079-25.1-18.242-50.177-28.244-77.8-56.391-155.657c-1.318-3.665-2.87-4.976-6.917-4.923-10.968.133-21.968.872-32.908-.518-2.5-.313-3.959.535-4.8,2.809-.723,1.945-1.535,3.862-2.247,5.811q-35.2,96.583-70.353,193.175c-1.793,4.923-4.244,9.69-4.582,14.979.82.438,1.33.944,1.845.944,16.333.109,32.667.088,48.992.277,3.709.036,5.152-1.728,6.125-4.992,2.194-7.391,4.807-14.657,7.025-22.048,1.089-3.585,2.8-5.767,6.9-5.241,11.519,1.487,23.073.418,34.612.535,4.228.044,5.751-1.266,7.009-4.807,2.657-7.508,5.643-14.9,9.2-24.162,1.6,3.959,2.532,6.125,3.36,8.327,5.715,15.288,11.511,30.545,17.037,45.9,1.6,4.433,3.689,6.712,8.89,6.579,13.661-.366,27.325-.052,40.986-.161,6.455-.052,6.676-.49,4.457-6.648M264.447,337.725c6.286-18.624,12.19-36.143,18.09-53.654.543-.028,1.089-.052,1.632-.072,5.562,17.708,11.137,35.412,17.093,54.349-13.074.008-24.44.679-36.814-.623" transform="translate(553.167 596.413)" fill="#fa2321"/><path d="M236.317,401.659q-19.635-53.973-39.3-107.931-16.144-44.346-32.265-88.692c-2.612-7.15-2.721-7.142-9.975-7.186-8.906-.064-17.824.064-26.739-.109-7.741-.145-7.773-.285-10.441,7.045Q83.908,297.223,50.265,389.663c-2.926,8.034-5.743,16.092-8.577,24.046,1.125.6,1.64,1.105,2.166,1.113,16.627.124,33.257.189,49.892.3,2.765.016,4.192-1.149,5.036-3.887,2.355-7.66,5.269-15.14,7.479-22.832,1.294-4.5,3.673-6.061,8.255-5.928,9.5.269,19,.08,28.495.072,10.281-.008,10.192-.052,13.765-9.236,2.231-5.723,3.681-11.776,6.828-17.262,3.014,1.977,3.272,5.172,4.28,7.853,5.643,15,11.35,29.974,16.554,45.13,1.66,4.831,4.111,6.507,9.051,6.189,5.912-.394,11.876-.088,17.812-.088h29.636c-1.937-5.667-3.211-9.6-4.622-13.476M123.552,337.4c6.27-18.7,12.222-36.517,18.733-55.953,6.973,19.3,12.133,37.365,17.8,55.953Z" transform="translate(125.857 596.868)" fill="#fa2321"/><path d="M368.227,306.637q0-49.018,0-98.032c0-2.078.121-4.164,0-6.237-.209-3.569,1.672-4.63,4.891-4.618q22.281.091,44.559.032c2.946-.008,4.393,1.2,4.3,4.22-.068,2.375.016,4.75.016,7.13q.006,72.186,0,144.372c0,1.78-.016,3.565,0,5.345.088,8.368.092,8.436,8.267,8.448,24.062.036,48.124-.02,72.186.024,12.99.024,11.426-1.222,11.514,11.326.068,9.208.032,18.419,0,27.627-.028,8.858-.052,8.914-8.625,8.934-18.122.04-36.244.012-54.361.012q-36.093,0-72.186,0c-2.078,0-4.16-.048-6.238-.052-2.846,0-4.441-1.206-4.332-4.26.076-2.078,0-4.16,0-6.237q-.006-49.012,0-98.028" transform="translate(1111.651 597.01)" fill="#666563"/><path d="M106.9,161.152q16.832,12.9,33.691,25.814c-2.572,6.684-8.561,10.662-11.88,17.29-10.023-5.948-18.1-13.3-26.831-19.7-13.391-9.806-26.445-20.075-39.608-30.191-5.04-3.874-4.992-3.931-1.575-8.966.165-.245.281-.523.426-.78,4.019-7.114,9.445-9.931,18.114-8.669a257.022,257.022,0,0,0,41.324,2.174c-4.328-3.34-8.637-6.7-12.985-10.015-5.9-4.493-11.792-9.011-17.776-13.4-2.777-2.034-3.006-4.107-.888-6.7,3.167-3.874,5.526-9.332,9.593-11.318,5.229-2.548,8.408,4.043,12.121,6.776,19.1,14.046,37.791,28.66,56.632,43.056.944.723,2.006,1.3,2.476,1.6a8.847,8.847,0,0,1-.342,1.857c-9.453,14.452-9.987,14.661-28.326,12.612-5.594-.623-11.213-1.033-16.816-1.567-5.578-.535-11.153-1.1-16.731-1.656-.2.595-.41,1.186-.619,1.772" transform="translate(175.975 290.201)" fill="#666563"/><path d="M244.759,414.732c-9.537,28.081-18.966,55.828-28.427,83.684-1.049-.1-1.9-.117-2.729-.265-10.884-1.957-17.732-6.784-18.777-19.372-.9-10.775-4.758-21.3-7.323-31.935-.334-1.383-.426-2.914-2.934-4.389-4.819,13.7-9.537,27.124-14.416,41.014-6.447-2.283-14.223-2.741-17.6-6.828-4-4.843,1.965-11.334,3.822-17.009,6.539-19.979,13.315-39.877,20.051-59.791,2.741-8.106,3.179-8.259,11.4-5.148,9.143,3.46,9.071,3.476,11.386,13.255,3.179,13.416,6.479,26.8,9.73,40.2,3.436-.526,2.962-3.179,3.577-4.907,3.569-10.04,7.126-20.091,10.317-30.251,1.238-3.939,2.837-5.538,6.969-3.846,4.855,1.989,9.839,3.689,14.955,5.586" transform="translate(456.477 1185.926)" fill="#666563"/><path d="M400.141,75.3c-9.256-9.449-21.337-14.834-31.786-22.539-4.369-3.219-6.081-1.157-8.239,2.219-5.562,8.729-11.269,17.366-16.9,26.059-8.372,12.917-16.546,25.971-25.2,38.7-2.773,4.075-2.15,6.322,1.853,8.38,4.421,2.275,8.026,5.964,12.99,7.684,6.036-9.228,11.973-18.295,17.664-26.988,6.9,1.624,7.274,5.936,6.5,11.109-1.266,8.5-2.23,17.029-3.416,25.525-.346,2.5-.366,4.566,2.174,6.117,5.538,3.372,10.948,6.953,17.832,11.366,1.113-11.563,2.21-21.522,2.986-31.517.687-8.782.518-8.854,8.914-10.429,10.655-2,17.776-8.058,20.686-18.471,2.813-10.019,1.648-19.356-6.057-27.217m-15.2,21.727a9.188,9.188,0,0,1-12.322,3.44,38.808,38.808,0,0,1-11.2-7.865c2.882-4.493,5.43-8.424,7.917-12.395,1.149-1.821,2.516-2.343,4.353-1.053,2.882,2.026,5.9,3.878,8.569,6.153,4.079,3.5,4.927,7.857,2.681,11.719" transform="translate(954.97 154.443)" fill="#666563"/><path d="M225.581,77.1a32.33,32.33,0,0,1,1.792-2.753c9.147-10.787,8.255-23.527,1.157-33.675-5.9-8.436-18.074-13.946-30.77-10.325q-14.927,4.25-30.026,7.845c-4.172.989-5.313,2.833-4.156,6.9,6.475,22.752,12.688,45.576,19.364,68.275,1.194,4.047-.169,10.385,4.513,11.651,3.754,1.009,8.48-1.748,12.813-2.677,4.164-.9,6.089-2.548,4.465-7.339-2.46-7.258-4.361-14.722-6.249-22.165-1.1-4.3,2.423-7.676,6.483-6.322,1.266.426,2.3,1.764,3.264,2.833,6.258,7,12.507,14.006,18.68,21.076,1.853,2.13,3.637,3.79,6.792,2.773,6.016-1.925,12.081-3.7,19.086-5.832-9.63-10.7-18.455-20.521-27.209-30.267M205.723,66.4c-11.233,4.638-12.588,3.967-15.345-7.757-.382-1.648-.555-3.352-.856-5.253,3.842-1.266,7.363-2.685,11.02-3.565,4.887-1.186,9.441,1.23,10.771,5.285,1.64,4.976-.426,9.159-5.591,11.289" transform="translate(492.563 88.191)" fill="#666563"/><path d="M328.5,450.948c-2.765-3.344-3.629-5.715-.394-8.926a17.282,17.282,0,0,0,4.867-10.224c3.022-20.871-13.926-37.7-35.761-32.257-10.04,2.5-19.954,5.5-30.018,7.845-4.574,1.069-4.67,3.263-3.645,7.061,6.189,22.8,12.1,45.664,18.367,68.436,1.069,3.886-.153,9.549,3.8,11.285,3.87,1.712,8.548-1.2,12.813-2.238,6.563-1.588,6.607-1.829,5.056-8.48-1.756-7.5-3.609-14.971-5.627-22.394-.74-2.709.438-3.565,2.62-4.59,3.549-1.684,5.619.125,7.588,2.524,5.209,6.346,10.421,12.688,15.542,19.106,3.139,3.931,6.4,6.2,11.884,4.039,4.9-1.925,10.208-2.789,16.209-4.341-7.09-10.622-16.012-18.021-23.3-26.847m-20.007-16a5.461,5.461,0,0,1-2.283,1.318c-4.485,1.069-9.975,5.144-13.223,2.05-3.131-2.986-3.3-9.155-4.566-13.97-.446-1.676.768-2.753,2.355-3.167,4-1.009,8.014-1.953,11.321-2.753,5.028.249,7.99,2.166,9.485,6.314,1.539,4.236-.084,7.427-3.091,10.208" transform="translate(794.056 1203.102)" fill="#666563"/><path d="M137.309,387.5c-2.866-3.657-5.325-6.989-7.99-10.144-2.829-3.352-4.156-6.507-2.062-11.076,2.584-5.639-.221-10.449-4.485-14.163-4.039-3.517-8.9-3.569-13.271-.888-9.1,5.578-18.066,11.466-25.509,19.207-5.1,5.305-5.39,10.2-1.744,15.14,4.055,5.5,10.47,7.355,16.562,4.835,2.653-1.1,3.8-2.536,2-5.406-1.664-2.652-5.124-4.972-3.943-8.412,1.17-3.408,5.14-4.69,7.721-7.085,3.191-2.962,5.245-2.391,7.745,1.189,5.4,7.733,11.289,15.128,17.189,22.937-7.938,7.837-16.615,14.01-26.855,17.386a27.946,27.946,0,0,1-26.24-4.4c-18.684-14.1-24.13-40.307-2.46-56.471,8.516-6.354,16.578-13.343,26.16-18.226,11.993-6.113,23.367-4.172,33.326,3.637,18.146,14.231,18.295,40.3,3.854,51.946" transform="translate(180.906 991.174)" fill="#666563"/><path d="M177.6,94.91c-3.083-4.718-4.554-10.188-6.836-15.381,8.151-3.991,16.04-7.926,24-11.724,6.334-3.026,6.435-2.982,9.714,3.762,1.941,3.995,3.73,8.066,5.446,12.166,9.963,23.837-8.018,43.55-28.523,46.046-15.16,1.845-26.007-3.826-33.1-17.3-4.413-8.388-8.814-16.892-12.033-25.774-5.763-15.911-1.326-31.658,13.91-40.974,14.782-9.035,32.755-6.563,43.763,5.868,3.356,3.79,3.167,4.666-1.66,6.917-2.685,1.254-5.438,2.367-8.135,3.6-3.549,1.624-6.463,2.862-10.466-.378-4.666-3.774-10.309-2.038-14.822,1.443-4.2,3.239-5.217,7.829-3.625,12.845a113.771,113.771,0,0,0,14.215,29.56c3.621,5.341,9.284,6.318,14.955,3.428,6.334-3.227,8.8-8.5,7.162-14.444-.9-3.267-2.146-4.654-5.6-2.99-2.62,1.266-5.02,3.167-8.368,3.332" transform="translate(404.063 121.712)" fill="#666563"/><path d="M180.1,100.343c-7.287,5.012-13.87,9.541-20.453,14.071-7.033,4.835-7.073,4.859-2.3,12.137,1.29,1.965,2.87,3.738,4.65,6.033l31.594-21.353c5.144,4.035,7.138,9.851,11.535,15.136-16.739,11.51-33.205,22.836-50.013,34.395-17.065-24.858-33.76-49.177-50.776-73.966,15.976-10.924,31.6-21.582,47.187-32.293,2.126-1.463,3.44-1.242,5.132.888,9.565,12.041,9.6,12.121-3.058,20.907-5.361,3.722-10.53,7.753-16.108,11.113-3.894,2.347-3.822,4.682-1.483,7.841,1.057,1.427,2.114,2.862,3.095,4.345,1.8,2.713,3.533,3.312,6.495,1.081,6.374-4.8,13.126-9.1,19.621-13.745,2.689-1.925,4.525-2.03,6.422,1.085,2.44,4,5.3,7.761,8.46,12.326" transform="translate(314.999 161.718)" fill="#666563"/><path d="M429.614,432.327c-7.725-6.113-15.618-12.346-23.5-18.592-13.48-10.682-26.984-21.333-40.411-32.08-5.265-4.212-5.389-4.477-1.234-9.834,10.136-13.066,20.505-25.955,30.721-38.961,1.563-1.989,3.581-2.789,5.249-1.045,3.5,3.661,8.564,5.329,12.057,9.875-7.934,10.1-15.911,20.272-23.572,30.026.764,2.532,2.556,2.48,3.665,3.356,8.476,6.676,8.5,6.676,15.413-2.033,4.393-5.538,8.725-11.125,13.3-16.96a69.538,69.538,0,0,1,14.77,11.977c-5.478,6.953-10.988,13.862-16.4,20.843-3.846,4.96-3.838,5.064,1.013,9.027,2.48,2.026,5.173,3.794,8.195,5.988,5.808-7.351,11.446-14.5,17.1-21.638a57.673,57.673,0,0,0,3.906-4.831c2.556-4.075,4.883-3.255,8.126-.523,9.8,8.259,9.947,8.171,1.8,18.54Q445.8,413.293,431.628,431a10.226,10.226,0,0,1-2.014,1.326" transform="translate(1091.487 998.86)" fill="#666563"/><path d="M327.21,490.945c-11.189-24.576-22.229-48.819-33.257-73.07-.49-1.077-.88-2.2-1.318-3.3-1.19-2.966-1.592-5.04,2.423-6.768,15.208-6.551,30.195-13.617,45.278-20.465,3.416-1.551,6.29-1.6,7.612,2.805a38.688,38.688,0,0,0,2.078,4.9c3.509,7.652,3.517,7.656-4.332,11.2-7.564,3.42-15.047,7.037-22.74,10.14-3.955,1.6-5.1,3.545-2.946,7.274a27.65,27.65,0,0,1,1.973,3.971c1.475,3.9,3.657,4.642,7.564,2.781,8.251-3.927,16.727-7.383,25.457-11.185,2.311,5.912,7.6,11.623,6.1,16.583-1.563,5.172-9.686,5.607-14.822,8.331-1.563.828-3.276,1.374-4.9,2.082-8.83,3.854-9.879,9.1-3.637,16.707,1.865,2.275,3.537,1.5,5.438.643,8.894-4.023,17.812-7.994,26.634-12.166,3.095-1.463,4.678-1.925,6.587,2.114,7.829,16.542,6.431,13.07-7.017,19.311-11.289,5.241-22.679,10.269-34.041,15.357-2.419,1.077-4.694,2.576-8.135,2.757" transform="translate(881.002 1166.501)" fill="#666563"/><path d="M216.938,459.794c-.41-16.313.864-32.574,1.483-48.851.225-5.972.47-6.688,5.94-5.992,15.972,2.025,32,.518,47.979,1.129,4.015.153,6.173,1.017,5.655,5.5-.5,4.353,1.712,9.626-1.081,12.909-2.914,3.428-7.785-.076-11.816-.008-7.122.117-14.251.157-21.369-.032-3.886-.1-5.024,1.507-5.177,5.253-.426,10.281.044,10.976,10.53,11.109,5.936.076,11.876.1,17.808.008,3.629-.06,5.377,1.2,5.333,5.148-.2,17.013,1.563,13.456-12.5,13.81-5.635.141-11.289.193-16.916-.077-3.537-.169-4.9,1.23-4.71,4.57a8.177,8.177,0,0,1-.012.888c-.623,10.771-.619,10.634,10.011,10.888,8.279.2,16.514,1.523,24.826,1.1,2.8-.145,4.144.957,4.493,4.039,1.551,13.689.952,14.545-12.764,14.452-13.645-.092-27.289-.338-40.934-.559-7.094-.116-6.929-.153-6.82-6.808.153-9.485.036-18.982.036-28.471" transform="translate(654.701 1221.9)" fill="#666563"/><path d="M440.9,113.863c-2.974,6.3-7.853,9.9-11.78,14.272-8.721,9.7-17.648,19.227-26.445,28.861-9.055,9.911-20.059,13.516-33,9.706-13.7-4.039-22.117-13.62-25.521-27.2-2.548-10.172.49-19.328,7.6-27.084q16.729-18.254,33.41-36.557c6.1-6.736,7.279-7.057,13.174-.627,2.6,2.833,5.884,4.851,8.918,8.311-5.992,6.551-11.9,13.018-17.824,19.472-7.419,8.09-15.1,15.956-22.189,24.319-5.743,6.776-4.1,14.814,3.163,18.865,4.815,2.689,10.5,1.977,15.393-2.813,6.322-6.2,12.27-12.785,18.238-19.331,6.551-7.182,12.985-14.472,19.392-21.787,2.122-2.423,3.573-.932,5.128.555,3.842,3.669,7.082,7.974,12.338,11.04" transform="translate(1036.346 213.149)" fill="#666563"/><path d="M193.651,383.586c-3.255-1.784-5.438-2.15-8.48.768-17.824,17.081-36.8,32.872-55.225,49.285-3.726,3.316-8.721,5.811-11.093,10.851,5.048,3.939,10.763,5.824,15.763,8.958,2.114,1.318,3.79,1.178,5.446-.679,1.186-1.318,2.64-2.415,3.754-3.79,2.423-3.014,4.823-3.629,8.319-1.3,4.413,2.95,9.256,5.277,13.9,7.909,6.213,3.521,6.374,3.565,4.9,10.566-.952,4.558-.555,7.9,4.4,9.951,4.574,1.889,8.854,4.493,14.014,7.178,4.465-28.656,8.782-56.114,13.01-83.584,1.575-10.208,1.041-10.771-8.705-16.112m-18.258,54.727c-4.341-1.053-7.793-3.067-11.7-5.59,3.738-6.3,10.289-9.212,14.891-14.292a56.14,56.14,0,0,1-3.191,19.882" transform="translate(358.82 1153.881)" fill="#666563"/><path d="M394.264,414.937c4.956-4.867,10.53-8.826,14.549-14.356a29.453,29.453,0,0,0-2.5-37.453c-10-10.449-28.487-10.888-38.675-1.479-8.231,7.6-16.611,15.023-25.01,22.43-2.584,2.291-2.532,4.369-.322,6.776q8.1,8.826,16.144,17.708c12.551,13.8,25.143,27.587,37.622,41.456,2.444,2.709,4.324,3.291,7.15.338,3.814-3.987,8.094-7.544,12.234-11.334-7.037-8.633-14.939-15.437-21.188-24.086M392,389.725a36.008,36.008,0,0,1-11.635,10.385c-4.047-4.509-7.568-8.444-11.321-12.644,2.319-4.807,6.864-7.282,10.558-10.413,3.372-2.854,7.677-1.853,11.129,1.632,3.633,3.673,4.212,7.037,1.27,11.04" transform="translate(1028.472 1071.525)" fill="#666563"/><path d="M357.217,469.246c-1.19,0-2.379-.028-3.565,0-3.448.1-4.988-1.382-4.16-4.907a19.668,19.668,0,0,0,.53-2.621c.723-7.387,2.146-13.5,12.021-13.331,5.305.092,9.823-3.971,14.131-7.11,4.1-2.986,5.241-8.307,3.026-11.788-2.243-3.529-6.117-4.449-11.02-2.415-4.927,2.042-9.686,4.538-14.7,6.326-11.229,4.011-19.991,2-26.638-6-7.628-9.176-10.811-19.625-4.807-30.5,8.183-14.814,21.518-22.366,38.382-23.64,3.71-.281,5.759,1.113,4.963,5.164-.458,2.327-1.318,4.626-1.423,6.961-.217,4.787-1.708,7.15-7.234,7.512-5.635.374-10.719,3.641-14.5,8.006-2.259,2.612-4.666,5.916-2.2,9.618,2.5,3.75,6.374,4.152,10.3,2.6,3.858-1.523,7.528-3.521,11.334-5.176,13.906-6.053,23.853-4.55,31.549,4.7,9.585,11.523,10.184,23.415,1.8,35.91-7.226,10.775-25.256,20.65-37.8,20.678" transform="translate(962.78 1126.799)" fill="#666563"/><path d="M401.384,179.892c-11.43.675-18.841-6.623-25.561-14.014-7-7.7-12.411-16.655-12.986-27.647-.33-6.35-.193-6.587,5.948-6.322,1.776.076,3.553.2,5.321.386,4.823.514,8.4,1.2,8.894,7.934.527,7.19,5.562,12.957,11.446,17.326,4.184,3.107,8.074,2.93,11.281-.229,3.051-3.006,2.387-6.266.6-9.734-2.834-5.506-6.467-10.538-8.714-16.414-3.247-8.492-2.9-16.374,2.91-23.443,7.065-8.6,16.1-13.126,27.438-10.691,14.826,3.187,30.287,22.748,30.259,37.807-.008,5.237-.325,5.538-5.466,5.048-.884-.084-1.764-.346-2.644-.346-6.25-.012-11.177-1.178-11.924-9.035-.426-4.485-4.353-7.684-7.154-11.044-2.685-3.223-8.267-3.32-11.462-1.009-3.3,2.383-3.858,5.611-1.4,10.3,2.194,4.184,4.859,8.118,7.029,12.31,9.911,19.114-2.283,38.936-23.817,38.82" transform="translate(1095.113 290.998)" fill="#666563"/><path d="M426.565,310.509c-2.138,3.971-3.975,7.331-5.759,10.715-2.331,4.421-4.216,8.135-10.872,8.143-8.794.008-12.776,13.544-6.31,18.97,9.666,8.114,20.256,14.633,32.313,17.993,9.429,2.624,17.226-6.33,12.885-14.846-2.878-5.647-1.4-9.421,1.262-13.805,1.981-3.263,3.983-6.515,5.968-9.762,11.832,7.488,16.289,22.35,11.277,36.818-6.081,17.559-25.131,28.254-42.67,20.911-12.379-5.185-24.195-11.3-34.363-20.027-9.163-7.865-11.314-18.528-8.753-29.906a39.837,39.837,0,0,1,7.266-15.083c7.865-10.494,20.843-16.47,37.755-10.12" transform="translate(1148.869 929.566)" fill="#666563"/><path d="M250.787,470.253c-8.569,27.092-36.187,27.253-51.544,17.443-9.067-5.8-14-14.641-13.757-25.344a133.771,133.771,0,0,1,7.134-40.87c3.493-10.124,11.241-15.124,20.594-17.812a33.905,33.905,0,0,1,42.73,26.759c1.041,5.586.326,6.346-5.084,5.466-2.624-.426-5.245-.96-7.889-1.178-4.349-.354-7.568-1.427-9.352-6.31-1.752-4.791-6.177-6.953-11.535-6.511a10.723,10.723,0,0,0-9.919,7.717c-3.617,11.318-5.908,22.916-5.341,34.9.225,4.795,3.376,7.395,7.491,8.942,4.811,1.812,10.124,1.861,12.957-2.532,2.87-4.445,6.1-3.677,9.839-3.074,4.353.7,8.685,1.519,13.677,2.4" transform="translate(559.96 1214.64)" fill="#666563"/><path d="M133.476,349.464c-9.927.74-18.721,1.841-27.526,1.957q-27.99.374-55.9,2.323c-1.772.121-3.577-.1-5.333.1-3.834.458-6.229-.916-7.13-4.811a19.25,19.25,0,0,0-1.668-4.119c-2.042-4.091-.969-7.025,2.636-9.843,10.683-8.343,21.176-16.932,31.694-25.485,11.828-9.613,23.6-19.3,35.689-29.182,4.288,5.289,5.546,11.458,7.741,17.157,1.222,3.167-1.29,4.73-3.46,6.406-11.724,9.055-23.395,18.186-35.886,27.916,8.665,1.2,16.663.378,24.508-.732,7.926-1.117,15.992-.137,23.821-2.1,2.717-.679,3.493,1.415,4.256,3.424,1.981,5.237,4.023,10.441,6.555,16.984" transform="translate(105.355 846.562)" fill="#666563"/><path d="M320.206,35.115c.2,3.589-2.592,5.349-4.24,7.628-9.031,12.475-18.218,24.834-27.366,37.224a14.465,14.465,0,0,0-2.906,7.254c-.9,7.93-2.279,15.8-3.444,23.7s-1.455,8.106-9.69,6.776c-1.17-.189-2.343-.366-3.513-.559-9.388-1.551-9.5-1.776-7.749-11.454,1.214-6.7,2.291-13.411,3.416-20.123.852-5.1,0-9.927-1.644-14.822C257.9,55.367,253,39.9,247.783,23.842c7.065-.145,13.231,1.7,19.512,2.56,3.1.422,3.492,2.653,4.075,5,1.716,6.889,3.541,13.749,5.261,20.638a23.674,23.674,0,0,0,3.095,7.921c6.161-7.069,10.035-15.381,15.224-22.776,4.224-6.021,4.124-6.386,11.526-4.546,4.53,1.129,9.533-.289,13.729,2.48" transform="translate(748.064 71.956)" fill="#666564"/><path d="M446.558,119.294c8.167,14.682,15.911,28.591,23.636,42.509,1.15,2.07,2.138,4.236,3.34,6.274,4.991,8.488,4.991,8.444-3.187,13.182-2.56,1.483-4.992,3.183-8.4,4.027-2.214-3.967-4.465-8.042-6.752-12.093-3.8-6.736-4.047-6.784-10.723-3.01q-23.186,13.106-46.4,26.18c-8.251,4.638-8.271,4.6-12.925-3.661-6.021-10.683-6.016-10.679,4.312-16.45,15.739-8.794,31.393-17.744,47.272-26.272,3.348-1.8,3.509-3.484,1.993-6.205a119.017,119.017,0,0,0-6.258-10.7c-2.307-3.276-1.5-5.546,1.571-7.286,3.85-2.178,7.845-4.087,12.515-6.495" transform="translate(1150.455 360.152)" fill="#666563"/><path d="M171.5,151.656c-4.212,5.321-8.681,11.406-13.954,12.62-6.057,1.391-9.111-6.953-13.351-10.972-10.522-9.963-20.075-20.951-30.123-31.425-2.005-2.09-3.685-4.7-8.645-6.234C102.547,119,99.031,123,95.631,127.092c-2.512,3.022-4.654,2.685-7.254-.052-11.157-11.756-11.6-8.87.141-20C97.95,98.1,108.086,89.92,116.883,80.274c2.753-3.018,6.294-5.321,9.332-7.837.848.3,1.584.322,1.877.691,3.3,4.2,9.9,6.957,10.3,11.768.426,5.2-6.9,7.206-10.293,11.189-4.011,4.714-4.24,4.469,0,9,7.287,7.793,14.464,15.69,21.811,23.423,7.134,7.508,14.806,14.513,21.59,23.146" transform="translate(241.096 218.689)" fill="#666563"/><path d="M407.368,347.69c-6.073-2.5-13.359-2.6-15.863-7.041-2.648-4.7,2.448-10.377,4.268-15.554,4.7-13.363,9.782-26.586,14.77-39.845,2.21-5.876,2.4-6.141,8.106-3.549,3.677,1.668,9.228.856,10.811,4.939,1.33,3.428-2.082,7.13-3.267,10.743-3.054,9.284-3.211,9.248,5.968,12.7,16.321,6.145,32.675,12.21,48.968,18.427,7.4,2.825,7.355,2.954,4.827,10.016-4.59,12.821-4.634,12.945-17.21,8.327-15.574-5.715-31.055-11.683-46.593-17.5-6.849-2.568-6.88-2.536-9.5,4.288-1.7,4.4-3.328,8.834-5.285,14.046" transform="translate(1179.706 845.736)" fill="#666563"/><path d="M369.429,61.92a6.34,6.34,0,0,1-.213,1.25c-2.375,5.064-3.517,12.089-7.507,14.629-4.083,2.6-9.384-3.251-14.239-5.177-5.659-2.243-5.651-2.327-8.259,3.613-7.74,17.623-15.425,35.275-23.218,52.878-2.612,5.9-2.817,6.033-8.3,3.5-4.28-1.981-10.462-2.44-12.367-6.29-1.989-4.023,2.633-8.512,4.425-12.736,6.463-15.228,13.3-30.3,19.866-45.483,2.56-5.928,2.4-5.992-3.734-8.862-.8-.378-1.547-.892-2.367-1.23-3.754-1.555-9.481-1.977-10.26-5.852-.961-4.759,3.412-9.131,5.16-13.8.973-2.592,3.147-2.042,5.229-1.117q27.924,12.383,55.78,24.681" transform="translate(890.138 110.106)" fill="#666563"/><path d="M260.088,112.454c-5.124,0-10.12-.161-15.1.052-3.87.165-5.225-1.423-5.181-5.2.133-11.583.044-23.166.04-34.749,0-8.315-.153-16.635.06-24.946.1-4-.808-6.334-5.381-5.751a18.67,18.67,0,0,1-5.333-.012c-3.71-.619-8.926,1.813-10.875-1.511-2.657-4.533-.945-10.385-.808-15.67.044-1.76,1.5-2.464,3.147-2.279,18.942,2.1,37.944.615,56.913.836,5.136.06,5.783,2.307,5.7,6.455-.293,14.388,1.423,11.953-11.438,12.222-11.4.241-10.486-1.833-10.574,10.333-.072,10.072-.173,20.111-1,30.187-.8,9.686-.169,19.492-.169,30.034" transform="translate(654.651 67.502)" fill="#666563"/><path d="M95.2,432.071q17.537-22.643,35.122-45.339c5.59-7.21,11.293-14.34,16.755-21.646,1.624-2.17,2.781-2.215,5.016-.872,4.6,2.761,9.847,5.707,12.093,10.035,2.974,5.735-4.111,8.882-6.973,12.772-10.839,14.722-22.346,28.945-34,43.872,8.846,6.9,17,13.64,25.593,19.766,3.553,2.532,3.963,4.023,1.306,7.536-8.508,11.257-8.335,11.33-19.6,2.552Q115.451,449,100.253,437.416c-1.9-1.451-3.79-2.829-5.048-5.345" transform="translate(287.427 1096.843)" fill="#666563"/><path d="M124.194,186.15c-10.337-5.647-20.2-10.96-29.994-16.41-15.951-8.878-31.851-17.84-48.136-26.976,2.97-5.442,5.844-10.241,8.247-15.264,1.672-3.5,3.637-3.05,6.322-1.5,5.884,3.4,11.828,6.688,17.768,9.983,17.547,9.738,35.066,19.528,52.7,29.114,2.673,1.451,3.521,2.729,1.953,5.426-2.954,5.084-5.8,10.224-8.858,15.626" transform="translate(139.068 376.887)" fill="#666664"/><path d="M55.134,369.793c-2.974-5.454-5.6-10.377-8.339-15.232-1.342-2.375-1.736-3.862,1.37-5.538q35.948-19.376,71.643-39.214c2.978-1.656,4.2-.792,5.5,1.7,1.784,3.408,3.472,6.9,5.582,10.1,2.432,3.689,2.48,5.9-2.022,8.243-16.036,8.352-31.851,17.133-47.742,25.762-8.544,4.65-17.073,9.32-25.991,14.183" transform="translate(138.245 932.753)" fill="#666664"/><path d="M140.567,349.14c5.57,5.582,10.353,10.381,15.71,15.75-21.084,21.084-41.722,42.244-62.95,62.106-5.333-4.863-10.333-9.429-14.673-13.387C99.4,392,119.877,370.682,140.567,349.14" transform="translate(237.459 1054.063)" fill="#676664"/><path d="M226.695,111.6c-5.249,1.881-11.02,1.117-16.474,2.407-3.091.731-3.963-.884-4.316-3.834-3.316-27.836-6.792-55.651-10.212-83.391a7,7,0,0,1,1.736-.957c19.352-3.42,19.058-3.384,21.2,16.124,2.295,20.851,5.213,41.629,7.885,62.436.3,2.331,1.1,4.626.177,7.214" transform="translate(590.8 72.791)" fill="#676664"/></g></g></svg>