<svg xmlns="http://www.w3.org/2000/svg" xmlns:xlink="http://www.w3.org/1999/xlink" width="62.805" height="512.164" viewBox="0 0 62.805 512.164"><defs><clipPath id="a"><rect width="512.164" height="62.805" fill="none"/></clipPath></defs><g transform="translate(62.805) rotate(90)"><g transform="translate(0 0)" clip-path="url(#a)"><path d="M368.351,59.087c-3.62-7.024-7.229-14.059-10.889-21.063-.583-1.114-.5-1.66.652-2.388a17.154,17.154,0,0,0,8.473-15.595A19.206,19.206,0,0,0,347.667.664C339.51.407,331.336.6,323.172.616c-1.964,0-1.967.046-2.017,1.921-.013.419,0,.842,0,1.261V58.854c0,.591.048,1.183,0,1.767-.108,1.191.377,1.666,1.585,1.653,4.041-.04,8.083-.048,12.122,0,1.249.018,1.653-.508,1.547-1.658-.046-.5-.008-1.011-.008-1.514,0-5.977-.008-11.956.015-17.933,0-.632-.326-1.567.417-1.822a9.841,9.841,0,0,1,3.755-.124c1.079.056,1.23,1.052,1.572,1.767,3.122,6.524,6.253,13.04,9.269,19.611a2.508,2.508,0,0,0,2.7,1.678c4.711-.058,9.429-.021,14.142-.025a1.726,1.726,0,0,0,1.444-.448c-.463-.926-.9-1.831-1.36-2.725m-17.339-36.62a6.161,6.161,0,0,1-5.834,4.056c-1.253.089-2.52.015-3.778.015s-2.52-.013-3.782.008c-.824.013-1.226-.316-1.22-1.183q.031-5.038,0-10.08c0-.89.485-1.17,1.269-1.166,2.6.018,5.228-.172,7.8.1,4.484.476,7.014,4.368,5.537,8.248" transform="translate(44.765 0.074)" fill="#666563"/><path d="M454.494,19.646C453.109,8.987,445.595,1.24,434.875.719c-8.232-.4-16.5-.1-24.748-.1-.083,0-.17,0-.253,0a1.051,1.051,0,0,0-1.216,1.224c.013.589,0,1.18,0,1.769q0,13.892,0,27.781,0,14.146,0,28.289c0,2.568.012,2.575,2.662,2.578,4.631.008,9.261.031,13.891-.008a84.356,84.356,0,0,0,10.583-.276,21.071,21.071,0,0,0,15.024-8.707c3.232-4.452,3.935-9.653,4.191-14.792a104.907,104.907,0,0,0-.513-18.833M439.281,40.1a10.313,10.313,0,0,1-1.466,5.037c-1.66,2.634-4.228,3.438-7.13,3.531-1.6.05-3.2.035-4.8,0-1.772-.035-1.815-.058-1.825-1.873-.023-5.141-.008-10.28-.01-15.418s-.015-10.28.008-15.418c.008-1.784.054-1.8,1.858-1.842,1.431-.033,2.867.043,4.3-.018,4.942-.21,8.736,2.409,9.068,8.587a158.481,158.481,0,0,1,0,17.411" transform="translate(56.965 0.071)" fill="#666563"/><path d="M141.792,57.133c-3.321-6.427-6.62-12.868-10.007-19.26-.581-1.095-.425-1.537.606-2.141a17.337,17.337,0,0,0,4.294-3.471c4.209-4.759,5.078-10.388,3.867-16.325A19.089,19.089,0,0,0,121.765.6C116.543.535,111.321.588,106.1.588H95.865a5.957,5.957,0,0,0-.255,2.8q-.022,23.753-.01,47.5c0,3.2.054,6.4-.025,9.6-.033,1.35.488,1.736,1.759,1.716,3.622-.056,7.244-.027,10.866-.013,3.056.01,2.666-.046,2.672-2.8.01-5.894,0-11.792.01-17.688,0-2.811-.164-2.5,2.647-2.527a6.242,6.242,0,0,0,.759,0c1.1-.144,1.656.407,2.106,1.37,3.1,6.632,6.278,13.224,9.34,19.875a2.684,2.684,0,0,0,2.886,1.8c4.547-.081,9.095-.021,13.644-.031a2.447,2.447,0,0,0,1.878-.422c-.767-1.511-1.545-3.075-2.349-4.629M121.886,26.006c-3.361,1.049-6.842.415-10.269.483-.68.013-.726-.583-.728-1.1-.008-1.764,0-3.529,0-5.295h0c0-1.512.043-3.025-.013-4.537-.043-1.1.422-1.473,1.486-1.45,2.353.05,4.714-.1,7.057.054,4.105.268,6.365,2.782,6.236,6.7a5.51,5.51,0,0,1-3.762,5.14" transform="translate(13.322 0.079)" fill="#fa2321"/><path d="M188.283,18.988a18.352,18.352,0,0,0-2.525-7.866C181.613,4.158,175.372.751,167.373.623c-7.664-.126-15.333.013-23-.1-1.4-.021-1.809.346-1.7,1.62.043.5.008,1.011.008,1.517V31.2q0,14.278,0,28.554c0,2.419.018,2.429,2.5,2.434,4.38.01,8.761.031,13.141,0,3.786-.027,7.575.16,11.359-.205a20.43,20.43,0,0,0,17.748-14.367,32.639,32.639,0,0,0,1.108-7.967,137.881,137.881,0,0,0-.257-20.661M173.037,40.95c-.483,4.846-3.213,7.449-8.028,7.689-1.845.091-3.7-.04-5.548.043-1.294.058-1.539-.558-1.531-1.678.035-5.214.015-10.427.015-15.641,0-5.128-.013-10.259.008-15.388.008-1.787.046-1.813,1.82-1.84,1.85-.031,3.7-.058,5.548.01a7.632,7.632,0,0,1,7.686,7.2,102.6,102.6,0,0,1,.031,19.6" transform="translate(19.886 0.072)" fill="#fa2321"/><path d="M35.2,26.8c3.538,0,7.076.016,10.613-.01.939-.007,1.689.066,1.659,1.288-.14,5.793.261,11.587-.81,17.363a21.72,21.72,0,0,1-20.6,17.288c-3.353.126-6.733.228-10.008-.819C7.223,59.087,1.9,53.233.353,44a28.853,28.853,0,0,1-.329-4.762C.018,33.594-.033,27.949.033,22.306.178,10.032,8.426,2.314,17.331.676c8-1.472,15.841-.826,22.4,4.85,4.171,3.612,6.407,8.348,7.481,13.691.2,1.011-.186,1.357-1.18,1.35-4.211-.026-8.425-.057-12.635.017-1.233.022-1.555-.631-1.872-1.583a7.014,7.014,0,0,0-4.77-4.838c-4.784-1.411-9.994-.076-11.015,6.2a29.834,29.834,0,0,0-.579,5.76c.158,4.958-.333,9.93.353,14.875.047.334.106.665.147,1,.417,3.362,1.863,5.989,5.362,6.873a8.883,8.883,0,0,0,9.243-2.486c1.6-1.706,1.924-3.866,2.019-6.083.038-.871-.614-.861-1.212-.865-2.106-.009-4.213-.062-6.317.008-1.239.041-1.593-.464-1.571-1.637.057-3.2.042-6.4,0-9.6-.014-1.2.419-1.569,1.656-1.534,3.449.1,6.9.034,10.353.034,0,.03,0,.059,0,.09" transform="translate(0 0)" fill="#fa2321"/><path d="M321.97,19.073c-1-8.073-5.487-13.522-12.61-17.028C305.533.161,301.419.1,297.271.169,289.929.3,284.191,3.5,279.816,9.243c-3.491,4.58-4.153,10.037-4.239,15.527a160.655,160.655,0,0,0,.273,17.385c.738,7.937,4.309,13.991,11.354,17.931,4.533,2.535,9.433,2.841,14.435,2.611,9.529-.438,18.429-7.863,20.018-17a90.758,90.758,0,0,0,.958-14.306,96.331,96.331,0,0,0-.646-12.317M306.731,42.3c-.622,3.506-2.454,5.821-5.973,6.688a7.491,7.491,0,0,1-8.923-4.749,21.663,21.663,0,0,1-.978-5.96,89.358,89.358,0,0,1,.291-16.624c.305-2.765,1.077-5.3,3.65-6.857a7.805,7.805,0,0,1,11.915,5.6c.632,3.68.412,7.381.477,11.076-.082,3.611.18,7.228-.459,10.824" transform="translate(38.401 0.021)" fill="#666563"/><path d="M258.015,31.975c.806-.508.74-1.158.877-1.71q3.5-13.939,6.961-27.886c.236-.955.37-1.791,1.65-1.783,4.784.028,9.569.011,14.454.011a13.432,13.432,0,0,1-.974,4.543q-7.457,27.383-15,54.74c-.758,2.752-.562,2.324-3,2.355-2.609.033-5.221.017-7.83,0-2.315-.011-2.289-.031-2.975-2.131q-4.232-12.953-8.494-25.9c-.155-.471-.373-.921-.78-1.918-2.474,7.482-4.789,14.489-7.143,21.61a2.039,2.039,0,0,1-1.094-1.493c-2.173-5.918-4.3-11.853-6.5-17.761a5.041,5.041,0,0,1-.065-3.415q3.577-11.564,7.119-23.139c.616-2.01,1.259-4.014,1.8-6.045A1.729,1.729,0,0,1,239,.591c2.441.051,4.883,0,7.325.013,2.089.011,2.112.017,2.748,2.094q3.246,10.612,6.463,21.233c.807,2.651,1.633,5.3,2.482,8.044" transform="translate(31.76 0.082)" fill="#666563"/><path d="M238.917,60.316q-2.574-7.117-5.172-14.225-8.007-22.058-15.987-44.129A1.722,1.722,0,0,0,215.8.566a67.271,67.271,0,0,1-9.329-.147,1.115,1.115,0,0,0-1.36.8c-.205.551-.435,1.095-.637,1.648q-9.979,27.381-19.945,54.765a15.555,15.555,0,0,0-1.3,4.247c.232.124.377.268.523.268,4.63.031,9.261.025,13.889.079,1.052.01,1.461-.49,1.736-1.415.622-2.1,1.363-4.155,1.992-6.251.309-1.016.794-1.635,1.956-1.486,3.265.422,6.541.118,9.812.152a1.717,1.717,0,0,0,1.987-1.363c.753-2.128,1.6-4.224,2.608-6.85.452,1.122.718,1.736.953,2.361,1.62,4.334,3.263,8.659,4.83,13.012a2.3,2.3,0,0,0,2.52,1.865c3.873-.1,7.747-.015,11.62-.046,1.83-.015,1.893-.139,1.264-1.885M206.253,40.141c1.782-5.28,3.456-10.247,5.128-15.211.154-.008.309-.015.463-.021,1.577,5.02,3.157,10.039,4.846,15.408a96.968,96.968,0,0,1-10.437-.177" transform="translate(25.541 0.056)" fill="#fa2321"/><path d="M96.866,58.374q-5.567-15.3-11.142-30.6Q81.146,15.2,76.576,2.631C75.836.6,75.8.607,73.748.594,71.223.576,68.7.612,66.168.563c-2.194-.041-2.2-.081-2.96,2q-9.55,26.206-19.088,52.412c-.829,2.278-1.628,4.562-2.431,6.817.319.17.465.313.614.316,4.714.035,9.429.054,14.144.085a1.318,1.318,0,0,0,1.428-1.1c.668-2.172,1.494-4.292,2.12-6.473a2.02,2.02,0,0,1,2.34-1.681c2.692.076,5.386.023,8.078.021,2.915,0,2.89-.015,3.9-2.618a34.715,34.715,0,0,1,1.936-4.894c.855.561.927,1.466,1.213,2.226,1.6,4.251,3.218,8.5,4.693,12.794a2.186,2.186,0,0,0,2.566,1.755c1.676-.112,3.367-.025,5.05-.025h8.4c-.549-1.607-.91-2.721-1.31-3.82M64.9,40.155c1.777-5.3,3.465-10.353,5.311-15.863,1.977,5.473,3.44,10.593,5.048,15.863Z" transform="translate(5.811 0.077)" fill="#fa2321"/><path d="M368.218,31.469q0-13.9,0-27.792c0-.589.034-1.18,0-1.768C368.16.9,368.694.6,369.606.6q6.317.026,12.632.009c.835,0,1.245.341,1.22,1.2-.019.673,0,1.347,0,2.021q0,20.465,0,40.929c0,.5,0,1.011,0,1.515.025,2.372.026,2.392,2.344,2.4,6.822.01,13.643-.006,20.465.007,3.683.007,3.239-.346,3.264,3.211.019,2.61.009,5.222,0,7.832-.008,2.511-.015,2.527-2.445,2.533-5.138.011-10.275,0-15.412,0H371.216c-.589,0-1.179-.014-1.768-.015-.807,0-1.259-.342-1.228-1.208.022-.589,0-1.179,0-1.768q0-13.895,0-27.791" transform="translate(51.328 0.083)" fill="#666563"/></g></g></svg>