<svg xmlns="http://www.w3.org/2000/svg" xmlns:xlink="http://www.w3.org/1999/xlink" width="87.921" height="346.465" viewBox="0 0 87.921 346.465"><defs><filter id="a"><feOffset dx="-1" dy="1" input="SourceAlpha"/><feGaussianBlur stdDeviation="1" result="b"/><feFlood flood-opacity="0.549" result="c"/><feComposite operator="out" in="SourceGraphic" in2="b"/><feComposite operator="in" in="c"/><feComposite operator="in" in2="SourceGraphic"/></filter><filter id="d"><feOffset dx="-1" dy="1" input="SourceAlpha"/><feGaussianBlur stdDeviation="1" result="e"/><feFlood flood-opacity="0.549" result="f"/><feComposite operator="out" in="SourceGraphic" in2="e"/><feComposite operator="in" in="f"/><feComposite operator="in" in2="SourceGraphic"/></filter><filter id="g"><feOffset dx="-1" dy="1" input="SourceAlpha"/><feGaussianBlur stdDeviation="1" result="h"/><feFlood flood-opacity="0.549" result="i"/><feComposite operator="out" in="SourceGraphic" in2="h"/><feComposite operator="in" in="i"/><feComposite operator="in" in2="SourceGraphic"/></filter><filter id="j" x="0.294" y="35.191" width="87.627" height="87.703" filterUnits="userSpaceOnUse"><feOffset dx="-2" dy="2" input="SourceAlpha"/><feGaussianBlur stdDeviation="1" result="k"/><feFlood flood-opacity="0.549" result="l"/><feComposite operator="out" in="SourceGraphic" in2="k"/><feComposite operator="in" in="l"/><feComposite operator="in" in2="SourceGraphic"/></filter><filter id="m" x="0" y="228.454" width="87.92" height="21.398" filterUnits="userSpaceOnUse"><feOffset dx="-2" dy="2" input="SourceAlpha"/><feGaussianBlur stdDeviation="1" result="n"/><feFlood flood-opacity="0.549" result="o"/><feComposite operator="out" in="SourceGraphic" in2="n"/><feComposite operator="in" in="o"/><feComposite operator="in" in2="SourceGraphic"/></filter><filter id="p" x="0.293" y="258.839" width="87.627" height="87.627" filterUnits="userSpaceOnUse"><feOffset dx="-2" dy="2" input="SourceAlpha"/><feGaussianBlur stdDeviation="1" result="q"/><feFlood flood-opacity="0.549" result="r"/><feComposite operator="out" in="SourceGraphic" in2="q"/><feComposite operator="in" in="r"/><feComposite operator="in" in2="SourceGraphic"/></filter><filter id="s"><feOffset dx="-2" dy="2" input="SourceAlpha"/><feGaussianBlur stdDeviation="1" result="t"/><feFlood flood-opacity="0.549" result="u"/><feComposite operator="out" in="SourceGraphic" in2="t"/><feComposite operator="in" in="u"/><feComposite operator="in" in2="SourceGraphic"/></filter></defs><g transform="translate(0 0)" style="isolation:isolate"><g data-type="innerShadowGroup"><path d="M35.392,0V26.244l26.242-.129V20.138H41.367V16.11H61.634V10.135H41.367V6.105H61.634V.13Z" transform="translate(26.083)" fill="#fff"/><g transform="matrix(1, 0, 0, 1, 0, 0)" filter="url(#a)"><path d="M35.392,0V26.244l26.242-.129V20.138H41.367V16.11H61.634V10.135H41.367V6.105H61.634V.13Z" transform="translate(26.08 0)" fill="#fff"/></g></g><g data-type="innerShadowGroup"><path d="M37.74.143V10.276H23.45V.143H17.473V26.385H23.45V16.252H37.74V26.385h5.977V.143Z" transform="translate(12.877 0.105)" fill="#fff"/><g transform="matrix(1, 0, 0, 1, 0, 0)" filter="url(#d)"><path d="M37.74.143V10.276H23.45V.143H17.473V26.385H23.45V16.252H37.74V26.385h5.977V.143Z" transform="translate(12.88 0.11)" fill="#fff"/></g></g><g data-type="innerShadowGroup"><path d="M0,.178V6.153H10.139V26.42h5.975V6.153H26.247V.178Z" transform="translate(0.003 0.131)" fill="#fff"/><g transform="matrix(1, 0, 0, 1, 0, 0)" filter="url(#g)"><path d="M0,.178V6.153H10.139V26.42h5.975V6.153H26.247V.178Z" transform="translate(0 0.13)" fill="#fff"/></g></g><g data-type="innerShadowGroup"><path d="M.169,20.26v87.627l54.3-.217V53.736l-21.181.217V86.489H21.565V41.656H66.4v66.307H87.8V20.26Z" transform="translate(0.125 14.931)" fill="#fff"/><g transform="matrix(1, 0, 0, 1, 0, 0)" filter="url(#j)"><path d="M.169,20.26v87.627l54.3-.217V53.736l-21.181.217V86.489H21.565V41.656H66.4v66.307H87.8V20.26Z" transform="translate(0.12 14.93)" fill="#fff"/></g></g><g data-type="innerShadowGroup"><rect width="87.92" height="21.398" transform="translate(0 228.453)" fill="#fff"/><g transform="matrix(1, 0, 0, 1, 0, 0)" filter="url(#m)"><rect width="87.92" height="21.398" transform="translate(0 228.45)" fill="#fff"/></g></g><g data-type="innerShadowGroup"><path d="M21.565,210.858V170.415H66.4v40.5l-4.329,4.33H25.954ZM.169,149.017v76.9L10.8,236.644H76.98L87.8,225.828V149.017Z" transform="translate(0.125 109.821)" fill="#fff"/><g transform="matrix(1, 0, 0, 1, 0, 0)" filter="url(#p)"><path d="M21.565,210.858V170.415H66.4v40.5l-4.329,4.33H25.954ZM.169,149.017v76.9L10.8,236.644H76.98L87.8,225.828V149.017Z" transform="translate(0.12 109.82)" fill="#fff"/></g></g><g data-type="innerShadowGroup"><path d="M.058,75.831v21.4H66.479V142.06l-11.949.009-.052-33-15.648.007L.237,148.341V163.46H15.379L33.359,145.48l.036,17.976H87.877V75.831Z" transform="translate(0.042 55.885)" fill="#fff"/><g transform="matrix(1, 0, 0, 1, 0, 0)" filter="url(#s)"><path d="M.058,75.831v21.4H66.479V142.06l-11.949.009-.052-33-15.648.007L.237,148.341V163.46H15.379L33.359,145.48l.036,17.976H87.877V75.831Z" transform="translate(0.04 55.89)" fill="#fff"/></g></g></g></svg>