<svg xmlns="http://www.w3.org/2000/svg" xmlns:xlink="http://www.w3.org/1999/xlink" width="21.363" height="29.435" viewBox="0 0 21.363 29.435"><defs><clipPath id="a"><rect width="21.363" height="29.435" fill="none" stroke="#b5b5b5" stroke-width="2"/></clipPath></defs><g transform="translate(0 0)"><g transform="translate(0 0)" clip-path="url(#a)"><path d="M7.152.25a5.328,5.328,0,0,0-5.5,5.123,5.331,5.331,0,0,0,5.5,5.126,5.331,5.331,0,0,0,5.5-5.126A5.328,5.328,0,0,0,7.152.25Z" transform="translate(3.532 0.537)" fill="none" stroke="#b5b5b5" stroke-miterlimit="10" stroke-width="2"/><path d="M7.25,4.568c-2.86,0-4.457,1.54-5.346,5.151L.291,16.933A1.488,1.488,0,0,0,.52,18.2,2.764,2.764,0,0,0,2.6,18.86H17.723a2.629,2.629,0,0,0,1.968-.644,1.7,1.7,0,0,0,.333-1.377L18.42,9.7c-1.031-3.536-2.684-5.136-5.343-5.136Z" transform="translate(0.536 9.79)" fill="none" stroke="#b5b5b5" stroke-miterlimit="10" stroke-width="2"/></g></g></svg>