<svg xmlns="http://www.w3.org/2000/svg" width="30" height="20.443" viewBox="0 0 30 20.443"><g transform="translate(-526.928 0.462)"><g transform="translate(526.928 2.63)" fill="#b5b5b5"><path d="M 28.99823379516602 16.35095596313477 L 1.001766204833984 16.35095596313477 C 1.000707387924194 16.34518432617188 1 16.33832740783691 1 16.33030700683594 L 1 1.020646095275879 C 1 1.012624025344849 1.000707387924194 1.005767226219177 1.001766204833984 0.9999960660934448 L 28.99823379516602 0.9999960660934448 C 28.99929237365723 1.005767226219177 29 1.012624025344849 29 1.020646095275879 L 29 16.33030700683594 C 29 16.33832740783691 28.99929237365723 16.34518432617188 28.99823379516602 16.35095596313477 Z" stroke="none"/><path d="M 2 1.999996185302734 L 2 15.35095596313477 L 28 15.35095596313477 L 28 1.999996185302734 L 2 1.999996185302734 M 0.9375 -3.814697265625e-06 L 29.0625 -3.814697265625e-06 C 29.58027076721191 -3.814697265625e-06 30 0.4569568634033203 30 1.020645141601562 L 30 16.33030700683594 C 30 16.89399528503418 29.58027076721191 17.35095596313477 29.0625 17.35095596313477 L 0.9375 17.35095596313477 C 0.4197292327880859 17.35095596313477 0 16.89399528503418 0 16.33030700683594 L 0 1.020645141601562 C 0 0.4569568634033203 0.4197292327880859 -3.814697265625e-06 0.9375 -3.814697265625e-06 Z" stroke="none" fill="#b5b5b5"/></g><g transform="translate(543.928 -0.462)" fill="#b5b5b5"><path d="M 12 16 L 1 16 L 1 1 L 12 1 L 12 16 Z" stroke="none"/><path d="M 2 2 L 2 15 L 11 15 L 11 2 L 2 2 M 1 0 L 12 0 C 12.55228042602539 0 13 0.4477195739746094 13 1 L 13 16 C 13 16.55228042602539 12.55228042602539 17 12 17 L 1 17 C 0.4477100372314453 17 0 16.55228042602539 0 16 L 0 1 C 0 0.4477195739746094 0.4477100372314453 0 1 0 Z" stroke="none" fill="#b5b5b5"/></g><text transform="translate(541.928 14.538)" fill="#1e2326" font-size="9" font-family="Montserrat-Black, Montserrat" font-weight="800"><tspan x="-13.793" y="0">DOCS</tspan></text></g></svg>