<svg xmlns="http://www.w3.org/2000/svg" xmlns:xlink="http://www.w3.org/1999/xlink" width="882.953" height="658.457" viewBox="0 0 882.953 658.457"><defs><filter id="a" x="0" y="0" width="160.096" height="658.457" filterUnits="userSpaceOnUse"><feOffset dx="-2" dy="2" input="SourceAlpha"/><feGaussianBlur stdDeviation="1" result="b"/><feFlood flood-opacity="0.549" result="c"/><feComposite operator="out" in="SourceGraphic" in2="b"/><feComposite operator="in" in="c"/><feComposite operator="in" in2="SourceGraphic"/></filter><filter id="d" x="227.337" y="0" width="655.616" height="656.259" filterUnits="userSpaceOnUse"><feOffset dx="-2" dy="2" input="SourceAlpha"/><feGaussianBlur stdDeviation="1" result="e"/><feFlood flood-opacity="0.549" result="f"/><feComposite operator="out" in="SourceGraphic" in2="e"/><feComposite operator="in" in="f"/><feComposite operator="in" in2="SourceGraphic"/></filter></defs><g transform="translate(-84.205 -169.543)" opacity="0.048"><g data-type="innerShadowGroup"><rect width="658.457" height="160.096" transform="translate(84.205 828) rotate(-90)" fill="#fff"/><g transform="matrix(1, 0, 0, 1, 84.2, 169.54)" filter="url(#a)"><rect width="658.457" height="160.096" transform="translate(0 658.46) rotate(-90)" fill="#fff"/></g></g><g data-type="innerShadowGroup"><path d="M160.24,462.692V160.1H495.992V463.121l-32.417,32.4H193.113ZM0,0V575.392l79.6,80.223H575.254l81-80.925V0Z" transform="translate(311.542 825.802) rotate(-90)" fill="#fff"/><g transform="matrix(1, 0, 0, 1, 84.2, 169.54)" filter="url(#d)"><path d="M160.24,462.692V160.1H495.992V463.121l-32.417,32.4H193.113ZM0,0V575.392l79.6,80.223H575.254l81-80.925V0Z" transform="translate(227.34 656.26) rotate(-90)" fill="#fff"/></g></g></g></svg>